<svg xmlns="http://www.w3.org/2000/svg" xmlns:xlink="http://www.w3.org/1999/xlink" width="351" height="179"><style><![CDATA[.B{fill-rule:nonzero}]]></style><g fill-rule="evenodd"><path d="M0 0h351v179H0z" fill="#fff"/><g fill="#3F3E3F"><g opacity=".2"><path d="M212.3 26.8v-1.6h-.1a.68.68 0 0 0-.7.7v.9c-5.2.3-9.5 4.3-10.1 9.6 0 .2 0 .4.2.6.1.2.3.2.5.2h9.5v8.1c0 .7.3 1.2.8 1.6V35.8h-4c.3-4.2 2-7.6 3.9-7.6h.1v-1.4h-.1zm-5.4 9h-4a9.71 9.71 0 0 1 6.2-7.1c-1.2 1.6-2 4.1-2.2 7.1zM7.4 24c.9.9 2.1 1.3 3.3 1.3.6 0 1.2-.1 1.7-.3l3.9 3.3c.4.4.8.5 1.4.5 1.9 0 4.8-1.9 7.2-4.3 3.1-3.1 5.3-7 3.8-8.6L25.3 12c.7-1.7.3-3.7-1-5s-3.2-1.7-4.8-1.1C15.8 3.6 10.8 4 7.6 7.2c-3.1 3.1-3.6 8-1.1 11.6-.8 1.8-.5 3.8.9 5.2zm20.2-7c.5.5-.4 3.3-3.7 6.6s-6.1 4.2-6.6 3.7l-3.6-3.1c.1-.1.2-.1.2-.2.4-.4.7-.9 1-1.4.1-.3.2-.5.3-.8.8-.2 1.6-.6 2.2-1.2s1-1.4 1.2-2.2c.8-.2 1.6-.6 2.2-1.2s1-1.4 1.2-2.2c.3-.1.7-.2 1-.4a2.73 2.73 0 0 0 1.2-.9l.2-.2 3.2 3.5zm-19-8.8c1.5-1.5 3.5-2.3 5.6-2.3 1.7 0 3.3.5 4.7 1.6.2.2.5.2.7.1 1.2-.6 2.7-.3 3.6.6 1 1 1.2 2.5.5 3.8-.1.3-.3.5-.5.7s-.5.4-.8.6-.7.3-1.1.3a.65.65 0 0 0-.6.6c-.1.7-.4 1.4-.9 1.9s-1.2.8-1.9.9a.65.65 0 0 0-.6.6c-.1.7-.4 1.4-.9 1.9s-1.2.8-1.9.9a.65.65 0 0 0-.6.6c0 .3-.1.6-.2.9a3.59 3.59 0 0 1-.7 1 3.04 3.04 0 0 1-.7.5c-1.4.8-2.9.6-3.9-.4s-1.2-2.6-.5-3.8c.1-.2.1-.5 0-.8-2.3-3.1-2-7.5.7-10.2z" class="B"/><path d="M77 39.4c-.3-.3-.7-.3-1 0s-.3.7 0 1l9.6 9.6c.1.1.3.2.5.2s.4-.1.5-.2c.3-.3.3-.7 0-1L77 39.4z"/><use xlink:href="#A"/><use xlink:href="#A" x="3.3" y="-3.3"/><path d="M90.7 27.3c-1.4-1.4-3.7-1.4-5.1 0l-.6.7c-.1-.6-.3-1.1-.7-1.5s-1-.7-1.6-.8c-.3 0-.6 0-.9.1-.9-.9-2.3-1.1-3.4-.6a3.95 3.95 0 0 0-4.8.6c-.2.2-.4.5-.6.8-.8-.1-1.7.2-2.2.9-.2.3-.4.7-.4 1.1a3.09 3.09 0 0 0-2 1.1c-1.5 1.5-1.5 3.8-.2 5.3-.7 1.2-.6 2.7.4 3.7.1.1.3.2.4.3 0 .4 0 .8.2 1.2.1.3.3.6.6.9.5.5 1.2.8 1.8.8.2 0 .3 0 .5-.1l10.5 10.5c.7.7 1.7 1.1 2.6 1.1s1.9-.4 2.6-1.1l7.7-7.7c1.4-1.4 1.4-3.5.2-5l1.1-1.1c.7-.7 1-1.6 1-2.5 0-1-.4-1.9-1-2.5l-6.1-6.2zm2.3 9.5l-5.6-5.6.8-.8 5.6 5.6-.8.8zm-24.5-4.3c0-.7.3-1.3.7-1.8.5-.5 1.1-.7 1.8-.7.2 0 .4-.1.6-.3.1-.2.2-.4.1-.6-.1-.3 0-.5.1-.7.3-.4.7-.5 1.1-.3.2.1.4.1.6 0a.78.78 0 0 0 .4-.4c.1-.3.3-.6.6-.9.9-.9 2.3-1 3.3-.2a.61.61 0 0 0 .8 0c.5-.4 1.2-.4 1.7 0l-11 11a1.68 1.68 0 0 1 .1-2.2c.1-.1.2-.3.2-.5a.55.55 0 0 0-.3-.5l-.2-.2c-.3-.4-.6-1.1-.6-1.7zm2.2 7.6c-.1-.1-.2-.3-.3-.4-.2-.4-.1-1 .3-1.3l10.9-10.9c.2-.2.5-.4.9-.4h.1c.3 0 .5.1.7.3.4.4.5.9.3 1.3-.1.1-.1.3-.3.4l-10.9 11c-.1.1-.2.2-.4.3-.5.1-1 0-1.3-.3zm23.8 3.5l-7.7 7.7c-.9.9-2.4.9-3.2 0L73.3 41.1 84.4 30l10.3 10.3c.7 1 .7 2.4-.2 3.3zm1.4-6.1l-1.1 1.1-.8-.8 1.1-1.1a1.09 1.09 0 0 0 0-1.5L89 29.1a1.09 1.09 0 0 0-1.5 0l-1.1 1.1-.8-.8 1.1-1.1c.8-.8 2.2-.8 3.1 0l6.1 6.1c.4.4.6 1 .6 1.5 0 .6-.2 1.2-.6 1.6z" class="B"/><path d="M208 145c.3-.3.3-.7 0-1s-.7-.3-1 0l-8.7 8.7c-1 1-1.5 2.3-1.5 3.7s.5 2.7 1.5 3.7v.1l.5-.5.4-.5c-.7-.7-1.1-1.7-1.1-2.7s.4-2 1.1-2.7l8.8-8.8zm4.3.5l-.2-.2.2-.2v-2l-1.2 1.2-3.1-3.1c-.3-.3-.7-.3-1 0l-10.1 10.1c-2.8 2.8-2.8 7.4.1 10.3 1.4 1.4 3.2 2.1 5.1 2.1s3.7-.8 5.1-2.1l5.2-5.2v-2l-6.2 6.2c-1.1 1.1-2.6 1.7-4.1 1.7-1.6 0-3-.6-4.2-1.7a5.73 5.73 0 0 1 0-8.2l9.6-9.6 4.8 4.8v-2.1z"/><use xlink:href="#B"/><use xlink:href="#C" class="B"/><path d="M194.3 68.9c-.3-.3-.7-.3-1 0s-.3.7 0 1c.8.8 2.2 1.4 3.9 1.4 1.3 0 2.7-.3 4.2-1.1 3.6-1.8 5.5-5.3 4.3-7.7-.2-.3-.6-.5-.9-.3s-.5.6-.3.9c.9 1.7-.9 4.4-3.7 5.8-2.8 1.5-5.5 1.1-6.5 0z"/><path d="M201.9 57c-.2-.3-.3-.6-.5-.9-.5-1.7-1.6-3.1-3.1-3.8-3.5-1.8-8.3.6-10.7 5.3-2.3 4.7-1.4 9.9 2.2 11.7.2.1.4.2.6.2.1.2.2.4.2.6.9 1.8 2.6 2.9 4.9 3.3.5.1 1.1.1 1.6.1 1.7 0 3.5-.4 5.2-1.3 4.7-2.3 7-7.1 5.3-10.7-.7-1.4-2-2.5-3.7-3h-.1c-.4-.1-.8-.4-1.2-.6.1 0 .2 0 .3-.1.5-.3 1.1-.6 1.7-.7.6-.2 1.2-.2 1.8-.2 1.1.1 2 .5 2.7 1.2.1.1.3.2.5.2s.4-.1.5-.2c.3-.3.3-.7 0-1-.7-.7-1.7-1.2-2.8-1.4.2-.8.2-1.6.1-2.3-.4-1.8-1.7-3.3-3.4-3.9-.2-.1-.5 0-.7.1-1.4 1.2-2 3.1-1.7 4.9.1.7.4 1.3.9 2-.1.1-.3.1-.4.2-.1-.1-.2.1-.2.3zm1.4 2.8s.1 0 .1.1c1.4.4 2.4 1.2 3 2.4 1.4 2.8-.7 6.8-4.6 8.8-2 1-4.1 1.3-6 1-1.8-.3-3.2-1.2-3.8-2.6-.1-.2-.2-.4-.3-.7-.1-.2-.2-.4-.5-.5s-.5-.2-.7-.3c-2.8-1.4-3.5-5.8-1.5-9.8 1.6-3.1 4.3-5.1 6.8-5.1.7 0 1.3.1 1.9.4 1.1.6 2 1.6 2.4 3.1 0 0 0 .1.1.1.3.7.7 1.4 1.2 1.9s1.1.9 1.9 1.2zm.5-4.3c-.4-.5-.6-1-.7-1.4-.2-1.2.1-2.4.9-3.3 1.1.5 1.9 1.5 2.1 2.7.1.6.1 1.2-.1 1.8v.1c-.6 0-1.2.1-1.7.2-.1 0-.3.1-.4.1 0 0-.1-.1-.1-.2zM4 89c.2 0 .4-.1.5-.2.3-.3.3-.7 0-1l-3.3-3.3 6.2-6.2L16 78c.3.7.7 1.4 1.3 2 1.2 1.2 2.8 1.8 4.4 1.8s3.2-.6 4.4-1.8 1.8-2.7 1.8-4.4c0-1.6-.6-3.2-1.8-4.4-2.2-2.2-5.7-2.4-8.1-.5L9.2 62c-.4-.4-1-.5-1.5-.3s-.9.7-.9 1.2l-.4 14.3L1 82.6v3.6l2.5 2.5a.55.55 0 0 0 .5.3zm4-21l8.5 8.5-8.7.2L8 68zm17 4.3a4.76 4.76 0 0 1 1.4 3.4 4.76 4.76 0 0 1-1.4 3.4c-1.9 1.9-4.9 1.9-6.7 0-.3-.3-.6-.6-.8-1l4.2-.1c.5 0 1-.4 1.2-.9s.1-1.1-.3-1.5l-3.7-3.7c1.9-1.5 4.5-1.3 6.1.4zM8.2 63l13.5 13.4-3.2.1L8.1 66.1l.1-3.1zm-4.9 73c.1 0 .1-.1.2-.1l11.9-9.9.6.6c.4.4.9.6 1.4.6s1-.2 1.4-.6.6-.9.6-1.4-.2-1-.6-1.4l-.5-.5.9-1.9c.2-.4.3-1.3-.3-2 0-.1-.1-.1-.1-.1l-7-7c-.8-.8-1.7-.6-2.2-.4l-1.9.9-.7-.7c-.8-.8-2.1-.8-2.8 0-.4.4-.6.9-.6 1.4s.2 1 .6 1.4l.5.5-3.7 3.9v2.1l4.6-5.3 8.7 8.7-11.7 9.8c-.1.1-.8.5-1.3 0l-.3-.2v1.8c.3.1.6.2.9.2.6 0 1-.2 1.4-.4zm6.8-23.1s.4-.1.6.1l7 7c.3.3.2.6.1.7l-.7 1.4-8.5-8.5 1.5-.7zm-5-.1a.76.76 0 0 1 .4-.2c.2 0 .3.1.4.2l11.8 11.8a.76.76 0 0 1 .2.4c0 .2-.1.3-.2.4a.76.76 0 0 1-.4.2c-.2 0-.3-.1-.4-.2L5.1 113.6a.76.76 0 0 1-.2-.4.76.76 0 0 1 .2-.4zm.8 16.5c1.2 0 2.4-.4 3.3-1.3a4.59 4.59 0 0 0 0-6.5 4.59 4.59 0 0 0-6.5 0 4.59 4.59 0 0 0 0 6.5c.9.8 2 1.3 3.2 1.3zm-2.2-6.9c.6-.6 1.4-.9 2.3-.9s1.6.3 2.3.9c1.2 1.2 1.2 3.3 0 4.5s-3.3 1.2-4.5 0a3.01 3.01 0 0 1-.1-4.5zm10.4 27.4c2.1 2.1 5.3 2.9 8.2 2.1l1.4 1.4c.7.6 1.6.9 2.5.9h.3c0 .1.1.2.2.3l1.9 1.9c-.7 1.2-.5 2.8.6 3.8.6.6 1.5.9 2.3.9s1.7-.3 2.3-.9c.4-.4.7-1 .9-1.6.6-.1 1.1-.4 1.6-.9 1.3-1.3 1.3-3.3 0-4.6-1-1-2.6-1.2-3.8-.6l-1.9-1.9c-.1-.1-.1-.1-.2-.1.1-1.1-.2-2.1-1-3 0-.1-.1-.1-.1-.2l-1.1-1.1c.8-2.9 0-6-2.1-8.2-3.2-3.2-8.5-3.2-11.7 0-3.5 3.3-3.5 8.5-.3 11.8zm15.6 2.2l1.9 1.9c.3.3.7.3 1 0a1.85 1.85 0 0 1 2.5.1c.7.7.7 1.9 0 2.6a1.85 1.85 0 0 1-1.2.5.68.68 0 0 0-.7.7c0 .5-.2.9-.5 1.2-.7.7-1.9.7-2.6 0s-.7-1.7-.1-2.5a.91.91 0 0 0 0-1l-1.9-1.9a3.8 3.8 0 0 0 1.6-1.6zm-4.9-12.9c1.9 1.9 2.5 4.7 1.6 7.1-.1.3 0 .5.2.7l1.5 1.5c.7.7.8 1.8.4 2.7s-1.3 1.3-1.3 1.3c-.9.4-1.9.3-2.6-.3l-1.6-1.6c-.1-.1-.3-.2-.5-.2h-.2c-2.5.9-5.3.2-7.1-1.6a6.82 6.82 0 0 1 0-9.7c2.6-2.6 7-2.6 9.6.1z" class="B"/><path d="M15.7 148.2c1.2 1.2 2.7 1.8 4.3 1.8.7 0 1.3-.1 2-.3.4-.1.6-.5.4-.9-.1-.4-.5-.6-.9-.4-1.7.6-3.6.2-4.8-1.1-.9-.9-1.4-2-1.4-3.3a.68.68 0 0 0-.7-.7.68.68 0 0 0-.7.7c0 1.5.6 3.1 1.8 4.2z"/><path d="M123.3 73.6c-1.5-1.5-3.9-1.5-5.3 0-.5.5-.9 1.2-1 1.9-.7.1-1.4.5-1.9 1-.7.7-1.1 1.7-1.1 2.7s.4 2 1.1 2.7c1.2 1.2 3.1 1.4 4.6.6l2.3 2.3c.1.1.2.1.3.2-.1 1.3.2 2.6 1.1 3.6l1.6 1.6c-1 3.5-.1 7.3 2.5 9.9 1.9 1.9 4.4 2.9 7 2.9 2.7 0 5.1-1 7-2.9 3.9-3.9 3.9-10.2 0-14-2.6-2.6-6.4-3.5-9.9-2.5l-1.4-1.4c-.1-.1-.2-.2-.4-.3-1-.8-2.2-1.1-3.4-1a.76.76 0 0 0-.2-.4l-2.3-2.3c.8-1.5.6-3.4-.6-4.6zm5.6 9.3c.1.1.2.2.3.2l1.7 1.7c.2.2.5.3.7.2 3.1-1.1 6.5-.3 8.8 2 3.3 3.3 3.3 8.7 0 12-1.6 1.6-3.7 2.5-6 2.5s-4.4-.9-6-2.5c-2.3-2.3-3.1-5.8-2-8.8.1-.3 0-.5-.2-.7l-1.7-1.7s-.1-.1-.1-.2c-.8-.9-1-2.3-.5-3.5.5-1.1 1.7-1.7 1.7-1.7 1-.4 2.3-.2 3.3.5zm-3.9-1.7c-.1 0-.1 0 0 0-.1 0-1.6.8-2.4 2.3l-2.5-2.5c-.3-.3-.7-.3-1 0-.9.8-2.3.7-3.2-.1-.9-.9-.9-2.4 0-3.3.4-.4 1-.7 1.6-.7a.68.68 0 0 0 .7-.7c0-.6.3-1.2.7-1.6.9-.9 2.4-.9 3.3 0a2.33 2.33 0 0 1 .1 3.2.91.91 0 0 0 0 1l2.7 2.4z" class="B"/><use xlink:href="#D"/><path d="M58.2 99.9c-.5.5-.8 1.2-.9 2l-.5.2c-.4.2-.7.4-1 .8l-1.5.2c-.7.1-1.2.5-1.6 1-.2.3-.3.8-.3 1.2h-.1l-.3-.1-.5-.3-.2-.3c-.8-1-2.1-1.5-3.2-1.1-.2.1-.3.1-.5.3-.9.6-1.1 1.8-.7 2.9l.2.6.2.3c.1.2.3.5.4.7l.5.6c.2.2.4.4.5.6l.4.3c.2.2.4.4.7.5.3.2.6.4.8.6l.3.2c.3.1.6.3.9.4l.9.3.4.1c.2.1.5.1.8.2l.8.1h.4c.6.5 1.3.9 2.1.9h.4l2.1-.3c.7.8 1.7 1.2 2.7 1.2.4 0 .8-.1 1.1-.2l3.1-1.3c.4.1.8.2 1.3.2.9 0 1.6-.3 2.2-.9l2.4-2.4c.9-.9 1.1-2.2.6-3.5l1.3-3c.5-1.2.1-2.8-1-3.8l.3-2.1c.1-.8-.2-1.8-.8-2.4v-.4l-.1-.8c0-.3-.1-.6-.2-.8l-.1-.6c-.1-.2-.2-.5-.3-.8s-.3-.6-.4-.9l-.2-.3c-.2-.2-.3-.5-.5-.8s-.4-.5-.6-.7l-.3-.4c-.2-.2-.4-.4-.6-.5l-.6-.5c-.2-.2-.5-.3-.7-.4l-.8-.4c-1.1-.5-2.3-.2-2.9.7-.1.1-.2.3-.2.5-.4 1.1 0 2.4 1.1 3.2l.2.1.4.4.2.4v.1c-.5 0-.9.1-1.3.4-.5.3-.8.9-.9 1.5l-.2 1.4c-.3.3-.6.6-.8 1l-.2.5c-.8.1-1.5.3-2 .9l-2.7 2.5zm-4 10.8c-.2 0-.4-.1-.6-.1l-.4-.1c-.2-.1-.4-.1-.7-.3-.3-.1-.5-.2-.7-.4l-.2-.1c-.2-.1-.4-.3-.7-.5-.2-.2-.4-.3-.5-.5l-.3-.3c-.1-.1-.3-.3-.4-.5l-.4-.6c-.1-.2-.3-.4-.4-.6l-.3-.7c-.2-.5-.1-1 .2-1.2 0 0 .1-.1.2-.1s.2-.1.3-.1c.4 0 .9.3 1.3.7l.4.4s.1.1.2.1l.4.3.2.2s.1.1.2.1l.1.1h.1c.1 0 .1 0 .2.1h.1l.2-.7-.1.7h.5l1.1 4.1zm3.3.9c-.5.1-1-.2-1.4-.6-.2-.2-.3-.4-.4-.6l-1.6-4.6v-.1c-.1-.3-.1-.6.1-.8a.55.55 0 0 1 .5-.3l.7-.1v.6c0 .1 0 .2.1.3v.2c0 .1.1.2.1.3 0 0 0 .1.1.1.1.1.1.3.2.4l3 5.1-1.4.1zm5.5.8c-.7.3-1.8-.1-2.4-.9l-.2-.2-3.4-5.7a.76.76 0 0 1-.2-.4c-.2-.5-.1-.9 0-1.2.1-.2.3-.4.5-.5l.2-.1c0 .1.1.2.1.3.2.6.6 1.1 1 1.5l6.3 6.3-1.9.9zm10.1-10.1l-.9 2-6.3-6.3c-.5-.5-1.1-.9-1.7-1.1-.1 0-.2-.1-.2-.1v-.1c.1-.2.2-.4.5-.5.4-.2 1-.2 1.6.1l5.8 3.5c.1 0 .1.1.2.1.9.6 1.4 1.6 1 2.4zM65.5 88c0-.1 0-.1.1-.2.2-.3.7-.4 1.2-.2l.4.2.3.2c.2.1.4.2.6.4l.6.4c.2.1.3.3.5.4l.3.3c.1.2.3.3.5.6.2.2.3.5.5.7l.1.2c.1.2.3.5.4.8.1.2.2.5.2.7l.1.4c0 .2.1.4.1.6v.1l-4-1.4v-.5l-.7.1.7-.2v-.2c0-.1 0-.1-.1-.2v-.1s0-.1-.1-.2l-.2-.3s-.1-.1-.1-.2l-.2-.3c0-.1-.1-.1-.1-.2l-.4-.3c-.6-.4-.9-1.1-.7-1.6zm-.3 5.9a.55.55 0 0 1 .3-.5c.2-.1.5-.2.8-.1h.2l4.6 1.6c.2.1.4.2.6.4.5.4.7 1 .6 1.4l-.2 1.4-5.1-3c-.1 0-.1-.1-.2-.1-.2-.1-.4-.2-.7-.3H66c-.2-.1-.4-.1-.6-.1h-.2v-.7zM63.1 98c.3 0 .5.1.8.2.4.2.8.4 1.2.8l6 6c.3.3.6.7.7 1.1.4.9.3 1.8-.2 2.3l-2.4 2.4c-.5.5-1.4.6-2.3.2-.4-.2-.8-.4-1.1-.7l-6-6c-.3-.3-.6-.7-.7-1.1-.1-.3-.2-.6-.2-.8 0-.6.1-1.1.5-1.4l2.4-2.4c.2-.5.7-.6 1.3-.6zm119.8 79.5c.9 0 1.6-.3 2.2-.9l2.4-2.4c.9-.9 1.1-2.2.6-3.5l1.3-3c.5-1.2.1-2.8-1-3.8l.3-2.1c.1-.8-.2-1.8-.8-2.4v-.4l-.1-.8c0-.3-.1-.6-.2-.8l-.1-.5c-.1-.2-.2-.5-.3-.8s-.3-.6-.4-.9l-.2-.3c-.2-.2-.3-.5-.5-.8s-.4-.5-.6-.7l-.3-.4c-.2-.2-.4-.4-.6-.5l-.6-.5c-.2-.2-.5-.3-.7-.4l-.8-.4c-1.1-.5-2.3-.2-2.9.7-.1.1-.2.3-.2.5-.4 1.1 0 2.4 1.1 3.2l.2.1.4.4.2.4.7-.1-.7.2c-.5 0-.9.1-1.3.4-.5.3-.8.9-.9 1.5l-.2 1.4c-.3.3-.6.6-.8 1l-.2.5c-.8.1-1.5.3-2 .9l-2.4 2.4c-.5.5-.8 1.2-.9 2l-.5.2c-.4.2-.7.4-1 .8l-1.5.2c-.7.1-1.2.5-1.6 1-.2.3-.3.8-.3 1.2h-.1l-.3-.1-.5-.3-.2-.3c-.8-1-2.1-1.5-3.2-1.1-.2.1-.3.1-.5.3-.9.6-1.1 1.8-.7 2.9l.2.6.2.3c.1.2.3.5.4.7l.5.6c.2.2.4.4.5.6l.4.3c.2.2.4.4.7.5.3.2.6.4.8.6l.3.2c.3.1.6.3.9.4l.9.3.4.1c.2.1.5.1.8.2l.8.1h.4c.6.5 1.3.9 2.1.9h.4l2.1-.3c.7.8 1.7 1.2 2.7 1.2.4 0 .8-.1 1.1-.2l3.1-1.3c.1.1.6.2 1 .2zm5.2-10.3l-.9 2-6.3-6.3c-.5-.5-1.1-.9-1.7-1.1-.1 0-.2-.1-.2-.1v-.1c.1-.2.2-.4.5-.5.4-.2 1-.2 1.6.1l5.8 3.5c.1 0 .1.1.2.1.9.6 1.3 1.7 1 2.4zm-6.6-12.3l-.4-.3c-.5-.4-.8-1.1-.6-1.6 0-.1 0-.1.1-.2.2-.3.7-.4 1.2-.2l.4.2.3.2c.2.1.4.2.6.4l.6.4c.2.1.3.3.5.4l.3.3c.1.2.3.3.5.6.2.2.3.5.5.7l.1.2c.1.2.3.5.4.8.1.2.2.5.2.7l.1.4c0 .2.1.4.1.6v.1l-4-1.4v-.5l-.7.1.7-.2v-.2c0-.1 0-.1-.1-.2v-.1s0-.1-.1-.2l-.3-.3-.2-.3c-.1-.3-.1-.4-.2-.4zm-1.3 3.9a.55.55 0 0 1 .3-.5c.2-.1.5-.2.8-.1h.2l4.6 1.6c.2.1.4.2.6.4.5.4.7 1 .6 1.4l-.2 1.4-5.1-3c-.1 0-.1-.1-.2-.1-.2-.1-.4-.2-.7-.3h-.1c-.2-.1-.4-.1-.6-.1h-.2v-.7zm-11 16.8c-.2 0-.4-.1-.6-.1l-.4-.1c-.2-.1-.4-.1-.7-.3-.3-.1-.5-.2-.7-.4l-.2-.1a3.04 3.04 0 0 1-.7-.5c-.2-.2-.4-.3-.5-.5l-.3-.3c-.1-.1-.3-.3-.4-.5l-.4-.6c-.1-.2-.3-.4-.4-.6l-.3-.7c-.2-.5-.1-1 .2-1.2.1 0 .1-.1.2-.1s.2-.1.3-.1c.4 0 .9.3 1.3.7l.5.5.4.3.2.2s.1.1.2.1l.1.1h.1c.1 0 .1 0 .2.1h.1l.2-.7-.1.7h.5l1.2 4.1zm3.2.9c-.5.1-1-.2-1.4-.6-.2-.2-.3-.4-.4-.6l-1.6-4.6v-.1c-.1-.3-.1-.6.1-.8a.55.55 0 0 1 .5-.3l.7-.1v.6c0 .1 0 .2.1.3v.2c0 .1.1.2.1.3 0 0 0 .1.1.1.1.1.1.3.2.4l3 5.1-1.4.1zm5.6.8c-.7.3-1.8-.1-2.4-.9-.1-.1-.1-.2-.2-.2l-3.4-5.7a.76.76 0 0 1-.2-.4c-.2-.5-.1-.9 0-1.2a1.21 1.21 0 0 1 .5-.5l.2-.1c0 .1.1.2.1.3.2.6.6 1.1 1 1.5l6.3 6.3-1.9.9zm2.7-2.1l-6-6c-.3-.3-.6-.7-.7-1.1-.1-.3-.2-.6-.2-.8 0-.6.1-1.1.5-1.4l2.4-2.4c.3-.3.8-.5 1.4-.5.3 0 .5.1.8.2.4.2.8.4 1.2.8l6 6c.3.3.6.7.7 1.1.4.9.3 1.8-.2 2.3l-2.4 2.4c-.5.5-1.4.6-2.3.2l-1.2-.8zm-150.6 6.3h.4a4.03 4.03 0 0 0 3.3 1.7h.3c.8-.1 18.8-1.5 23.4-18.3.5-1.7-.2-3.4-1.5-4.4 0-2-1.2-3.8-3.2-4.3-1.3-.4-2.6-.1-3.7.6-.2-.1-.3-.1-.5-.2a3.75 3.75 0 0 0-4.5 2.5c-2.6 9.4-13.2 10.4-13.7 10.4-2 .1-3.5 1.9-3.3 3.9v.3a4.63 4.63 0 0 0-1.5 3.7c.3 2.3 2.2 4.1 4.5 4.1zm26.1-17c-4.4 15.8-21.5 17.2-22.2 17.2-1.1.1-2-.5-2.6-1.4-.2-.4-.3-.7-.3-1.1-.1-1.5 1-2.8 2.5-2.9.6 0 14-1.2 17.4-13.3 0-.2.1-.3.2-.5 0-.1.1-.1.1-.1.1-.1.1-.2.2-.3 0-.1.1-.1.1-.2l.3-.3c.1-.1.2-.1.2-.2.1 0 .1-.1.2-.1.1-.1.3-.1.4-.2h.1c.1 0 .3-.1.4-.1h.6a.9.9 0 0 1 .5.1l.6.3c1.2.7 1.7 1.9 1.3 3.1zm-25.6 6.4c.5 0 12-1.1 14.9-11.4a2.22 2.22 0 0 1 2.1-1.6h.4v.1a.76.76 0 0 0-.2.4c0 .1-.1.1-.1.2-.1.2-.2.4-.2.7-3.4 12.1-17 13.4-17.6 13.4-.2 0-.4 0-.6.1-.1 0-.1 0-.2.1-.1 0-.2.1-.4.1 0-1.2.9-2 1.9-2.1zm-2.2 3.7c.4-.3 1-.5 1.5-.5.2 0 1.5-.1 3.3-.6a8.93 8.93 0 0 0 2-.6c.5-.2 1-.3 1.5-.5.6-.2 1.2-.5 1.7-.8.3-.1.6-.3.9-.5 3.9-2.1 7.8-5.6 9.5-11.6.2-.6.5-1.1.9-1.5.6-.5 1.3-.7 2-.7.3 0 .5 0 .8.1a2.91 2.91 0 0 1 2.1 2.3c-.1 0-.2 0-.4-.1-.1 0-.3 0-.4-.1H53c-.1 0-.3.1-.4.1s-.2 0-.4.1a.76.76 0 0 0-.4.2c-.1.1-.2.1-.3.2s-.2.2-.4.2c-.1.1-.2.1-.3.2l-.5.5c-.1.1-.2.3-.3.4s-.1.2-.2.3c-.1.2-.2.5-.3.8-3.1 11.1-15.6 12.2-16.1 12.3-2.3.2-4 2.1-3.8 4.4 0 .2.1.5.1.7-1.5-.1-2.6-1.3-2.7-2.8 0-.9.5-1.9 1.4-2.5zM155.8 19.8c-2 .1-3.5 1.9-3.3 3.9v.3a4.63 4.63 0 0 0-1.5 3.7c.2 2.3 2.1 4.1 4.4 4.1h.4a4.03 4.03 0 0 0 3.3 1.7h.3c.8-.1 18.8-1.5 23.4-18.3.5-1.7-.2-3.4-1.5-4.4 0-2-1.2-3.8-3.2-4.3-1.3-.4-2.6-.1-3.7.6-.2-.1-.3-.1-.5-.2-.9-.3-1.9-.1-2.8.3-.8.5-1.4 1.3-1.7 2.2-2.6 9.4-13.2 10.4-13.6 10.4zm25.7-5C177.1 30.6 160 32 159.3 32.1c-1.1.1-2-.5-2.6-1.4-.2-.4-.3-.7-.3-1.1-.1-1.5 1-2.8 2.5-2.9.6 0 14-1.2 17.4-13.3 0-.2.1-.3.2-.5 0-.1.1-.1.1-.1.1-.1.1-.2.2-.3 0-.1.1-.1.1-.1l.3-.3c.1-.1.2-.1.2-.2.1 0 .1-.1.2-.1.1-.1.2-.1.3-.2.1 0 .1 0 .2-.1.1 0 .2-.1.4-.1h.6a.9.9 0 0 1 .5.1l.6.3c1.1.6 1.6 1.9 1.3 3zm-6.6-6.3c.6-.5 1.3-.7 2-.7.3 0 .5 0 .8.1a2.91 2.91 0 0 1 2.1 2.3c-.1 0-.3 0-.4-.1-.1 0-.2 0-.4-.1h-.8c-.1 0-.3.1-.4.1s-.2 0-.3.1a.76.76 0 0 0-.4.2c-.1 0-.2.1-.3.1-.1.1-.2.2-.3.2-.1.1-.2.1-.3.2l-.6.6c-.1.1-.2.3-.3.4s-.1.2-.2.3c-.1.2-.2.5-.3.8-3.1 11.1-15.6 12.2-16.1 12.3-2.3.2-4 2.1-3.8 4.4 0 .2.1.5.1.7-1.5-.1-2.6-1.3-2.7-2.8-.1-1.1.4-2.1 1.3-2.7a2.7 2.7 0 0 1 1.5-.5c.2 0 1.5-.1 3.3-.6a8.93 8.93 0 0 0 2-.6c.5-.2 1-.3 1.5-.5a8.86 8.86 0 0 0 1.7-.8c.3-.1.6-.3.9-.5 3.9-2.1 7.8-5.6 9.5-11.6.2-.4.5-1 .9-1.3zm-4.1 1.3c.2-.6.5-1 1-1.3.3-.2.7-.3 1.1-.3h.4v.1a.76.76 0 0 0-.2.4c0 .1-.1.1-.1.2-.1.2-.2.4-.2.7-3.4 12.1-17 13.4-17.6 13.4-.2 0-.4 0-.6.1-.1 0-.1 0-.2.1-.1 0-.2.1-.4.1a2.15 2.15 0 0 1 2-2c.4-.1 11.9-1.2 14.8-11.5z" class="B"/><use xlink:href="#E"/><use xlink:href="#F"/><use xlink:href="#G"/><path d="M68.5 167.5c.2.9.7 1.7 1.3 2.4L73 173c1 1 2.3 1.5 3.7 1.5 1.3 0 2.7-.5 3.7-1.5l10.8-10.8c2-2 2-5.3 0-7.3l-3.1-3.1a4.74 4.74 0 0 0-2.4-1.3c-.1-.8-.4-1.5-1-2-.8-.8-2-1.2-3.2-.9-.7.1-1.3.5-1.8.9l-13.2 13.2a3.5 3.5 0 0 0 0 5c.6.3 1.3.7 2 .8zm21.7-11.7c1.5 1.5 1.5 3.9 0 5.3L79.3 172c-1.5 1.5-3.9 1.5-5.3 0l-3.1-3.1c-.4-.4-.7-.9-.9-1.5a.76.76 0 0 0 .4-.2h.1c.2-.1.3-.2.5-.3h.1a.68.68 0 0 0 .7-.7l13.5-13.5c.1-.1.2-.3.3-.5v-.1c.1-.1.1-.3.2-.4.6.2 1.1.5 1.5.9l2.9 3.2zm-8.5-7c.7-.1 1.4.1 1.9.6.4.4.6 1 .6 1.6 0 .1 0 .3-.1.4-.1.4-.3.7-.6 1l-2.5 2.5V149c.3-.1.5-.2.7-.2zm-2 1.5v5.9l-3.4 3.4v-5.9l3.4-3.4zm-4.8 4.9v5.9l-3.2 3.2v-5.6c0-.1 0-.2-.1-.3l3.3-3.2zm-7.4 7.3l2.8-2.8v5.9l-.1.1c-.3.2-.7.3-1.1.4-.6 0-1.2-.2-1.6-.6-.8-.8-.8-2.1 0-3z" class="B"/><path d="M185.8 107.2c.1.1.3.2.5.2s.4-.1.5-.2.2-.3.2-.5-.1-.4-.2-.5-.2-.3-.2-.5.1-.4.2-.5c.3-.3.8-.3 1.1 0s.7.3 1 0c.1-.1.2-.3.2-.5s-.1-.4-.2-.5c-.2-.1-.2-.3-.2-.5s.1-.4.2-.5c.3-.3.8-.3 1.1 0s.7.3 1 0c.1-.1.2-.3.2-.5s-.1-.4-.2-.5a2.3 2.3 0 0 0-3.1 0c-.4.4-.6.9-.6 1.5-.5 0-1 .2-1.5.6-.4.4-.6 1-.6 1.5s.1 1 .6 1.4zm-5.3-.4c.2 0 .4-.1.5-.2s.2-.3.2-.5-.1-.4-.2-.5c-.2-.1-.2-.3-.2-.5s.1-.4.2-.5c.3-.3.8-.3 1.1 0s.7.3 1 0c.1-.1.2-.3.2-.5s-.1-.4-.2-.5-.2-.3-.2-.5.1-.4.2-.5c.3-.3.8-.3 1.1 0s.7.3 1 0c.1-.1.2-.3.2-.5s-.1-.4-.2-.5a2.3 2.3 0 0 0-3.1 0c-.4.4-.6.9-.6 1.5-.5 0-1 .2-1.4.6s-.6 1-.6 1.5c0 .6.2 1.1.6 1.5.1 0 .3.1.4.1z"/><path d="M193 100.3l-3.1-3.1c-2-2-5.3-2-7.3 0L171.7 108c-2 2-2 5.3 0 7.3l3.1 3.1a4.74 4.74 0 0 0 2.4 1.3c.1.8.4 1.5 1 2 .7.7 1.6 1 2.5 1 .2 0 .5 0 .7-.1.7-.1 1.3-.5 1.8-.9l13.2-13.2a3.5 3.5 0 0 0 0-5c-.6-.6-1.3-.9-2-1-.3-.7-.8-1.5-1.4-2.2zm-20.3 14.1c-1.5-1.5-1.5-3.9 0-5.3l10.8-10.8c.7-.7 1.7-1.1 2.7-1.1s1.9.4 2.7 1.1l3.1 3.1c.4.4.7.9.9 1.5a.76.76 0 0 0-.4.2h-.1c-.2.1-.3.2-.4.2h-.1a.68.68 0 0 0-.7.7l-13.5 13.5a.76.76 0 0 0-.2.4v.1c-.1.1-.1.3-.2.4-.6-.2-1.1-.5-1.5-.9l-3.1-3.1zm8.4 7c-.7.1-1.4-.1-1.9-.6-.4-.4-.6-1-.6-1.6 0-.1 0-.3.1-.4.1-.4.3-.7.6-1l2.5-2.5v5.8c-.3.2-.5.3-.7.3zm2-1.5V114l3.4-3.4v5.9l-3.4 3.4zm4.9-4.8v-5.9l3.2-3.2v5.6c0 .1 0 .2.1.3l-3.3 3.2zm7.4-7.4l-2.8 2.8v-5.9l.1-.1c.3-.2.7-.3 1.1-.4h.1c.6 0 1.1.2 1.5.6a2.18 2.18 0 0 1 0 3z" class="B"/><path d="M176.6 112.5c.3-.3.8-.3 1.1 0s.7.3 1 0c.1-.1.2-.3.2-.5s-.1-.4-.2-.5-.2-.3-.2-.5.1-.4.2-.5c.3-.3.8-.3 1.1 0s.7.3 1 0c.1-.1.2-.3.2-.5s-.1-.4-.2-.5a2.3 2.3 0 0 0-3.1 0c-.4.4-.6.9-.6 1.4-.5 0-1.1.2-1.5.6s-.6 1-.6 1.5c0 .6.2 1.1.6 1.5.1.1.3.2.5.2s.4-.1.5-.2.2-.3.2-.5-.1-.4-.2-.5-.2-.3-.2-.5c-.1-.2 0-.4.2-.5z"/><circle transform="matrix(.707107 -.707107 .707107 .707107 -28.294579 92.651796)" cx="97.693" cy="80.48" r="1"/><path d="M97.3 84.1a.61.61 0 0 0 0 .8.61.61 0 0 0 .8 0 .61.61 0 0 0 0-.8.61.61 0 0 0-.8 0zm5.6 3.2a.61.61 0 0 0 0-.8.61.61 0 0 0-.8 0 .61.61 0 0 0 0 .8c.2.2.5.2.8 0zm0 5.4a.61.61 0 0 0 .8 0 .61.61 0 0 0 0-.8.61.61 0 0 0-.8 0 .61.61 0 0 0 0 .8z"/><use xlink:href="#H"/><use xlink:href="#H" x="3" y="-1.1"/><path d="M109.1 96.6a.61.61 0 0 0 0 .8.61.61 0 0 0 .8 0 .61.61 0 0 0 0-.8c-.3-.2-.6-.2-.8 0z"/><use xlink:href="#H" x="-13.7" y="-12.9"/><use xlink:href="#H" x="0.1" y="-5.6"/><path d="M77 89.4c0 .8.3 1.6.9 2.2l18.7 18.7c.6.6 1.4.9 2.2.9s1.6-.3 2.2-.9.9-1.3.9-2.1c.2 0 .4.1.6.1a2.61 2.61 0 0 0 1.7-.7c.8-.8.9-2.1.3-3a.76.76 0 0 0 .4-.2c.1.2.2.5.4.7.1.1.3.2.5.2s.4-.1.5-.2l2-2c.4-.4.6-.8.7-1.3h.3c.2 0 .3 0 .5-.1 1-.2 1.8-.9 2.2-1.8 1.9-4.5 1.2-9.2-1.8-12.2l-9.4-9.4c-3-3-7.6-3.6-12.2-1.8-.9.4-1.6 1.2-1.8 2.2v.1c-.8-.1-1.6.1-2.2.7l-2 2c-.3.3-.3.7 0 1 .3.4.8.6 1.2.7-.1.2-.2.4-.2.5-.9-.6-2.2-.5-3 .3-.6.6-.8 1.5-.6 2.3-.8 0-1.5.3-2.1.9s-.9 1.4-.9 2.2zm26.3 13.9L85.1 85c-.1-.1-.1-.3-.1-.5 0-.3.1-.7.4-.9l.6-.6c.2.1.4.4.3.7l-.2.8c-.2.7 0 1.4.5 1.9s1.2.7 1.9.5l.8-.2c.3-.1.5.1.6.1.1.1.2.3.1.6l-.2.8c-.2.7 0 1.4.5 1.9s1.2.7 1.9.5l.8-.2c.3-.1.5.1.6.1.1.1.2.3.1.6l-.1.9c-.2.7 0 1.4.5 1.9s1.2.7 1.9.5l.8-.2c.3-.1.5.1.6.1.1.1.2.3.1.6l-.2.8c-.2.7 0 1.4.5 1.9s1.2.7 1.9.5l.8-.2c.3-.1.5.1.6.1.1.1.2.3.1.6l-.2.8c-.2.7 0 1.4.5 1.9s1.2.7 1.9.5l.8-.2c.2-.1.3 0 .4.1a1.38 1.38 0 0 1 .3.4v.3l-.5.5c-.1.5-.7.5-1.1.4zm-15-24.2c.1-.5.5-.9 1-1.1 1.5-.6 3-.9 4.5-.9 2.4 0 4.6.8 6.1 2.4l9.4 9.4c2.6 2.6 3.1 6.6 1.5 10.6-.2.5-.6.9-1.1 1-.2 0-.5.1-.8-.2l-.1-.1c-.1-.2-.2-.3-.4-.5L88.3 79.6c-.1-.2-.1-.4 0-.5zm-2.6 1.5a1.07 1.07 0 0 1 1.4-.1c.1.1.2.3.3.4l20.2 20.2c.2.4.1.8-.2 1.1l-.8.8a.45.45 0 0 0 0-.5v-.6c-.1-.5-.5-1-.9-1.3-.5-.3-1-.3-1.5-.2l-.8.2c-.3.1-.5-.1-.6-.1-.1-.1-.2-.3-.1-.6l.2-.8c.2-.7 0-1.4-.5-1.9s-1.2-.7-1.9-.5l-.8.2c-.3.1-.5-.1-.6-.1-.1-.1-.2-.3-.1-.6l.2-.8c.2-.7 0-1.4-.5-1.9s-1.2-.7-1.9-.5l-.8.2c-.3.1-.5-.1-.6-.1-.1-.1-.2-.3-.1-.6l.2-.8c.2-.7 0-1.4-.5-1.9s-1.2-.7-1.9-.5l-.8.2c-.3.1-.5-.1-.6-.1-.1-.1-.2-.3-.1-.6l.2-.8c.2-.7 0-1.4-.5-1.9s-1.2-.7-1.9-.5l-.8.2c-.3.1-.5-.1-.6-.1-.1-.1-.2-.3-.1-.6l.2-.8a1.96 1.96 0 0 0-1.3-2.4c-.4-.1-.8-.1-1.2 0l-.7.2.8-1.5zm-4 5.9c-.4-.4-.4-1 0-1.4a1.08 1.08 0 0 1 .7-.3 1.08 1.08 0 0 1 .7.3l.8.8c.1.2.2.4.4.5l17.6 17.6c.2.2.4.3.5.4l.8.8c.4.4.4 1 0 1.4s-1 .4-1.4 0L81.7 86.5zm-2.8 1.7a1.75 1.75 0 0 1 2.5 0l18.7 18.7a1.75 1.75 0 1 1-2.5 2.5L78.9 90.7c-.3-.3-.5-.8-.5-1.2 0-.5.2-1 .5-1.3z" class="B"/><path d="M66 23.8c1.1 0 2.3-.2 3.4-.5 2.3-.6 4.3-1.9 5.9-3.6L85.5 8.3c1.9-2 2.6-4.6 2.2-7.3h-1.4c.4 2.3-.2 4.6-1.8 6.3L74.2 18.8C72.8 20.3 71 21.4 69 22c-5.9 1.7-12.1-1.8-13.8-7.7-1.5-5.4 1.2-11 6.2-13.2h-2.8c-4.2 3-6.2 8.4-4.7 13.6 1.6 5.4 6.6 9.1 12.1 9.1zm-8.3-10.3c1.1 3.8 4.5 6.3 8.3 6.3a9.07 9.07 0 0 0 2.3-.3c1.5-.4 2.9-1.3 4-2.4L82.6 5.5c1.1-1.2 1.5-2.8 1.1-4.4V1h-1.5c.1.2.1.3.2.5.3 1.1 0 2.2-.8 3.1L71.3 16.1a6.72 6.72 0 0 1-3.3 2c-3.8 1.1-7.8-1.2-8.8-5-1-3.7 1-7.5 4.6-8.7L73.4 1h-4.3l-5.9 2.1c-4.3 1.4-6.7 6-5.5 10.4z"/><g class="B"><path d="M67.3 8.1c-1-.5-2.1-.7-3.1-.4-1.1.3-1.9 1-2.5 1.9s-.7 2.1-.4 3.1c.3 1.1 1 1.9 1.9 2.5.6.4 1.3.5 2 .5.4 0 .8-.1 1.1-.2 1.1-.3 1.9-1 2.5-1.9.5-1 .7-2.1.4-3.1-.2-1-.9-1.8-1.9-2.4zm.4 4.9c-.4.6-.9 1.1-1.6 1.3s-1.4.1-2.1-.2c-.6-.4-1.1-.9-1.3-1.6s-.1-1.4.2-2.1c.4-.6.9-1.1 1.6-1.3.3-.1.6-.1.8-.1.5 0 .9.1 1.3.3.6.4 1.1.9 1.3 1.6.2.8.1 1.5-.2 2.1zM48 19.7c0-.1-.1-.2-.2-.3s-.1-.1-.2-.1a3.05 3.05 0 0 0-.8-.8 15.22 15.22 0 0 0-4.3-3c-.3-.1-.6-.1-.8.1l-9.2 9.2c-.2.2-.3.5-.1.8.7 1.6 1.7 3.1 3 4.3 2.6 2.6 5.8 4 8.7 4 1.6 0 3.2-.5 4.4-1.4l8 8-2.8 2.8c-.3.3-.3.7 0 1 .1.1.3.2.5.2s.4-.1.5-.2l6.6-6.6c.3-.3.3-.7 0-1s-.7-.3-1 0l-2.8 2.8-8-8c2.2-3 1.6-7.9-1.5-11.8zm-14.1 5.7l8.5-8.5c1.2.6 2.4 1.5 3.5 2.5l.5.5-9.5 9.5-.5-.5a13.33 13.33 0 0 1-2.5-3.5zM48 30.9c-.1 0-.1 0 0 0-2.3 2.3-6.5 1.9-10-.7l9.3-9.3c2.5 3.6 2.9 7.8.7 10zm137.1 113.2c.6 0 1.2-.1 1.9-.2 2.4-.4 4.8-1.5 6.9-3.2a.76.76 0 0 0 .4-.2l.2-.2c.3-.3.7-.6 1-.9 1.5-1.5 2.8-3.3 3.6-5.1.1-.3.1-.6-.1-.8l-11-11c-.2-.2-.5-.3-.8-.1-1.8.8-3.6 2-5.1 3.6-2.4 2.4-4.1 5.4-4.6 8.4-.5 2.8.1 5.3 1.6 7.1l-9.8 9.8-3.4-3.4c-.3-.3-.7-.3-1 0s-.3.7 0 1l7.9 7.9c.1.1.3.2.5.2s.4-.1.5-.2c.3-.3.3-.7 0-1l-3.4-3.4 9.8-9.8c1.1.9 2.9 1.5 4.9 1.5zm-2.3-17.3a16.23 16.23 0 0 1 4.3-3.1l10.3 10.3c-.7 1.5-1.8 3-3.1 4.3-.2.2-.5.4-.7.6l-11.5-11.5c.3-.1.5-.3.7-.6zm-1.5 1.8l11.3 11.3c-4.3 3.2-9.5 3.7-12.2 1-2.8-2.8-2.3-8 .9-12.3z"/><use xlink:href="#I"/><path d="M106.9 61.6a3.33 3.33 0 0 0 3.3 3.3 3.33 3.33 0 0 0 3.3-3.3 3.33 3.33 0 0 0-3.3-3.3 3.33 3.33 0 0 0-3.3 3.3zm3.3-1.9c1 0 1.9.8 1.9 1.9s-.8 1.9-1.9 1.9c-1 0-1.9-.8-1.9-1.9s.9-1.9 1.9-1.9z"/><use xlink:href="#J"/><path d="M95.7 66.6c-.2.4-.3.8-.3 1.3a3.12 3.12 0 0 0 3.1 3.1c.2 0 .4 0 .7-.1h.1l18.5-4.8c.5.9 1.4 1.5 2.5 1.5.2 0 .5 0 .7-.1.7-.2 1.3-.6 1.7-1.3.4-.6.5-1.4.3-2.1-2.2-8.7-8.5-16.1-16.8-19.7a2.8 2.8 0 0 0-2.2 0c-.7.3-1.3.8-1.6 1.5-.5 1.2-.1 2.6.8 3.3l-7.5 17.4c0-.1 0-.1 0 0zm8.1-20.3c.2-.3.4-.6.8-.7.2-.1.3-.1.5-.1s.4 0 .6.1c7.9 3.5 13.8 10.5 16 18.8.1.4 0 .7-.2 1.1-.2.3-.5.6-.9.6-.7.2-1.5-.3-1.7-1-.2-.9-.5-1.8-.9-2.7-2.1-5.4-5.9-9.9-10.9-12.8-.3-.2-.7-.4-1-.6-.1 0-.2-.1-.2-.1-.4-.2-.9-.4-1.3-.6-.3-.2-.6-.4-.7-.8a1.06 1.06 0 0 1-.1-1.2zM97 67.1V67l7.5-17.2c.1 0 .2.1.3.1.2.1.4.2.5.3l.6.3c.2.1.3.2.5.3s.4.3.6.4.3.2.5.3.4.3.6.4.3.2.5.3c.2.2.4.3.6.5.1.1.3.2.4.3.2.2.4.4.6.5a1.38 1.38 0 0 0 .4.3l1 1a16.32 16.32 0 0 1 1.7 2c.1.1.1.2.2.3.2.3.4.5.5.8.1.1.2.3.3.4.1.2.3.5.4.7s.2.3.3.5.3.4.4.7c.1.2.2.3.3.5s.2.4.3.7c.1.2.2.3.2.5.1.2.2.5.3.7s.1.4.2.6.2.5.2.7c.1.2.1.4.2.6 0 .1.1.2.1.3L99 69.4h-.1c-1.1.3-2.1-.6-2.1-1.6 0-.2.1-.5.2-.7zm-8.5-52.7s0 .1 0 0c0 .1 0 .1 0 0l.6.7c.2.3.5.5.7.8-.3.4-.4.9-.4 1.3a2.34 2.34 0 0 0 .7 1.7l18.2 18.2c.4.4 1 .7 1.7.7.5 0 .9-.2 1.3-.4.2.2.5.4.7.7.3.3.7.6.9.8l.2.2h.1c.2.1.4.2.6.2h.1c.6 0 .9-.5.9-.6.5-.8.8-1.6.7-2.3 0-.4-.1-.7-.2-1.1 0-.1 0-.4.1-.7.2-.9.7-1.7 1.2-1.9.3-.2.6-.3.9-.5.7-.4 1.2-1.3 1.3-2.3s-.1-1.8-.6-2.4a2.34 2.34 0 0 0-.7-.7c-.5-.5-.6-1.9-.3-2.4.2-.3.4-.5.5-.8.4-.6.4-1.5.1-2.4s-1-1.7-1.6-1.9l-.9-.3c-.7-.2-1.4-1.3-1.3-2 0-.3.1-.6.1-.9.1-.7-.3-1.6-1-2.3s-1.6-1-2.2-.9c-.3 0-.6.1-.9.1-.7.1-1.8-.6-2-1.3l-.3-.9c-.2-.7-1-1.3-1.9-1.6s-1.8-.2-2.4.2c-.3.2-.5.4-.8.5-.6.4-1.9.3-2.5-.2-.2-.2-.5-.5-.7-.6-.5-.5-1.4-.7-2.4-.5-1.1.2-1.9.7-2.3 1.4-.2.3-.3.6-.5.9-.3.5-1.2 1.1-2.1 1.3-.3.1-.5.1-.6 0-.3-.1-.7-.1-1.1-.1-.7-.1-1.3.2-1.8.5l-.1.1c-.1 0-.1.1-.2.1-.2.4-.2 1 .2 1.6zm20.8 21.8L91.1 17.9c-.3-.3-.3-.8-.1-1.2.7.1 1.5-.4 2.2-.8.2-.1.4-.3.6-.4l.2-.1a11.94 11.94 0 0 1 1.6-.8c1.6-.6 3.2-1 4.8-.9.5 0 1.1 0 1.6.1.4.1.7.1 1.1.2 1.4.3 2.7.9 4 1.7.2.1.4.2.5.3a3.04 3.04 0 0 0 .7.5c.1.1.3.2.4.3.3.2.6.5.8.8 3.3 3.3 4.6 7.9 3.8 12.3-.1.6-.3 1.1-.5 1.6-.2.6-.5 1.1-.8 1.6a.76.76 0 0 0-.2.4c-.2.4-.6.7-.9 1-.4.4-.8.7-.8 1.2 0 .1 0 .3.1.5-.2.3-.6.2-.9 0zM90.5 13.4c.3 0 .7.1 1 .1s.7 0 1.1-.1c1.1-.3 2.5-1 3-2 .1-.3.3-.6.5-.9s.7-.6 1.3-.7 1 0 1.2.2.5.4.7.6c1 .9 3.1 1.1 4.2.3.2-.2.5-.3.7-.5.2-.1.6-.2 1.2 0 .5.2.9.5 1 .8l.3.9c.5 1.3 2.2 2.4 3.6 2.2.3 0 .6-.1.9-.1.2 0 .7.1 1.1.6.4.4.6.9.6 1.1 0 .3-.1.6-.1.9-.2 1.4 1 3.1 2.3 3.5l.9.3c.3.1.6.5.8 1s.1 1 0 1.2c-.2.3-.3.5-.5.8-.7 1.1-.5 3.2.4 4.2.2.2.4.4.6.7.2.2.3.6.2 1.2s-.3 1.1-.7 1.3c-.3.2-.5.3-.8.5-1 .5-1.6 1.8-1.9 2.8-.1.5-.2 1-.1 1.4.1.3.1.6.1 1 0 .2-.1.6-.4 1.2-.3-.2-.6-.5-.9-.8-.3-.2-.5-.5-.7-.7 1.3-1.9 2.2-3.9 2.5-6.1.3-1.2.4-2.3.4-3.5 0-.6-.1-1.2-.2-1.8-.3-1.7-.9-3.3-1.8-4.9-.2-.4-.5-.9-.9-1.3-.5-.7-1.1-1.4-1.8-2l-.2-.2c-.3-.3-.6-.5-.9-.8-.2-.1-.3-.3-.5-.4-.2-.2-.5-.4-.7-.6s-.5-.3-.7-.5c-.2-.1-.4-.3-.6-.4-1.2-.6-2.4-1.1-3.7-1.4-4.2-1-8.8-.3-12.5 2.3-.2-.3-.5-.5-.7-.8l-.5-.6c.7.1 1 0 1.2 0zm-65 84.1l8.2 8.2c.7.7 1.6 1.1 2.6 1.1s1.9-.4 2.6-1.1l6.6-6.6c1.3-.2 2.4-.8 3.4-1.8 2.5-2.5 2.5-6.5 0-9a5.79 5.79 0 0 0-2.5-1.5c-.8-.3-1.7-1-1.9-1.8-.3-1-.8-1.9-1.6-2.6-1.2-1.2-2.8-1.9-4.5-1.9s-3.3.7-4.5 1.9c-.9.9-1.5 2.1-1.8 3.4l-6.6 6.6a3.45 3.45 0 0 0 0 5.1zm1-4.1l6.8-6.8a.76.76 0 0 0 .2-.4c.1-1.1.6-2 1.4-2.8.9-.9 2.2-1.4 3.5-1.4s2.6.5 3.5 1.4c.6.6 1 1.2 1.2 2 .3 1.4 1.7 2.4 2.8 2.8.7.2 1.4.6 1.9 1.2 1.9 1.9 1.9 5 0 7-.8.8-1.7 1.2-2.8 1.4-.2 0-.3.1-.4.2l-6.8 6.8c-.8.8-2.3.8-3.1 0l-8.2-8.2c-.4-.4-.6-1-.6-1.6-.1-.7.1-1.2.6-1.6zM156.8 198l8.2-8.2c1.4-1.4 1.4-3.7 0-5.1l-6.6-6.6c-.2-1.3-.8-2.4-1.8-3.4-1.2-1.2-2.8-1.9-4.5-1.9s-3.3.7-4.5 1.9a5.79 5.79 0 0 0-1.5 2.5c-.3.8-1 1.7-1.8 1.9-1 .3-1.9.8-2.6 1.6-2.5 2.5-2.5 6.5 0 9 .9.9 2.1 1.5 3.4 1.8l6.6 6.6c.7.7 1.6 1.1 2.6 1.1s1.8-.5 2.5-1.2zm-10.9-7.7c-.1-.1-.2-.2-.4-.2-1.1-.1-2-.6-2.8-1.4-.9-.9-1.4-2.2-1.4-3.5s.5-2.6 1.4-3.5c.6-.6 1.2-1 2-1.2 1.4-.3 2.4-1.7 2.8-2.8.2-.7.6-1.4 1.2-1.9.9-.9 2.2-1.4 3.5-1.4s2.6.5 3.5 1.4c.8.8 1.2 1.7 1.4 2.8 0 .2.1.3.2.4l6.8 6.8c.4.4.6 1 .6 1.6s-.2 1.1-.6 1.6l-8.2 8.2c-.8.8-2.3.8-3.1 0l-6.9-6.9z"/></g><path d="M112.3 184.7c5 0 9-4.1 9-9a.68.68 0 1 0-1.4 0 7.6 7.6 0 0 1-7.6 7.6.68.68 0 1 0 0 1.4z"/><use xlink:href="#K" class="B"/><path d="M176.2 54.5a.68.68 0 0 0 .7.7c5 0 9-4.1 9-9a.68.68 0 1 0-1.4 0 7.6 7.6 0 0 1-7.6 7.6.68.68 0 0 0-.7.7z"/><path d="M179.3 33.8c.3 0 .7 0 1-.1 1.5-.4 2.6-1.7 2.7-3.3 0-.2 0-.3-.1-.5-.9-1.2-2.5-1.8-4-1.4s-2.6 1.7-2.7 3.3v2.9c-5.6.3-10.1 4.7-10.7 10.3l-5.3-5.3c-.3-.3-.7-.3-1 0-2.1 2.1-3.2 4.8-3.2 7.7a10.43 10.43 0 0 0 2 6.2l1.2 1.5a10.91 10.91 0 0 0 7.7 3.2c1.9 0 3.9-.5 5.6-1.6 1.4.6 2.8.9 4.3.9 6.3 0 11.4-5.1 11.4-11.4 0-6.1-4.8-11-10.7-11.4v-1.4c.6.3 1.2.4 1.8.4zm-.1-3.9c.8-.2 1.7 0 2.3.7-.2.8-.8 1.5-1.6 1.8-.8.2-1.7 0-2.3-.7.2-.9.8-1.6 1.6-1.8zm-11.6 27l-.6-8.4 6.1 6.1c-1.6 1.4-3.6 2.1-5.5 2.3zm-7.9-15.6l4.2 4.2h-6.3c.4-1.6 1.1-3 2.1-4.2zm5.1 5.6l-6.1 5.2c-.9-1.6-1.3-3.4-1.2-5.2h7.3zm-4.6 7.2c-.3-.3-.5-.5-.7-.8l6.1-5.2.6 8.7c-2.2-.1-4.3-1-6-2.7zm26.7-7.9c0 5.5-4.5 10-10 10-1 0-2-.2-2.9-.4.2-.2.5-.4.7-.6.3-.3.3-.7 0-1l-7.8-7.8v-.2c0-5.5 4.5-10 10-10s10 4.4 10 10z" class="B"/><use xlink:href="#L"/><path d="M1.7 105.5c-.1-.2-.4-.4-.7-.4v1.5c.1-.1.3-.1.4-.2.3-.1.5-.6.3-.9z"/><use xlink:href="#M"/><path d="M132.9 177.7c3.6 0 10.1-3.8 15.8-8.5 7.2-6 13.2-13.5 10.8-16.3s-10.8 1.7-18 7.7c-3.8 3.1-7 6.5-9 9.4-2.3 3.2-2.9 5.6-1.8 6.9.5.6 1.3.8 2.2.8zm.6-6.6c.7.4 1.5.8 2.3 1s1.7.4 2.5.4c1.2 0 2.3-.3 3.3-.8.3-.2.5-.6.3-1-.2-.3-.6-.5-1-.3-1.2.7-3 .8-4.7.3-.7-.2-1.3-.5-1.9-.8.9-1.2 2-2.5 3.3-3.8.7.6 1.5 1 2.4 1.4 1 .4 2 .6 3 .6s1.9-.2 2.7-.6c.4-.2.5-.6.4-.9-.2-.4-.6-.5-.9-.4-1.3.6-3.1.6-4.7 0-.7-.3-1.3-.6-1.9-1 1.2-1.1 2.4-2.3 3.8-3.4.7.5 1.5.9 2.4 1.2s1.8.4 2.6.4c1.1 0 2.2-.2 3.1-.7.3-.2.5-.6.3-1-.2-.3-.6-.5-1-.3-1.3.7-3 .7-4.7.2-.6-.2-1.2-.5-1.7-.8 1.7-1.4 3.3-2.5 4.9-3.5.8.4 1.7.8 2.6.9.6.1 1.2.2 1.7.2 1.5 0 2.9-.4 4-1.1a.78.78 0 0 0 .2-1 .78.78 0 0 0-1-.2c-1.2.8-2.9 1.1-4.6.7-.5-.1-1-.3-1.4-.4 3.3-2 6-2.9 7.5-2.9.5 0 .9.1 1.1.4 1.1 1.3-2.4 7.4-10.7 14.3s-14.9 9.2-16 7.9c-.3-.6-.1-2.2 1.8-5zm-58.3-56.9h-.3c-.1 0-.1.1-.2.2l-5.5 6.7s0 .1-.1.1c0 0 0 .1-.1.1v.2c0 .1 0 .2.1.3 0 0 0 .1.1.1 0 0 0 .1.1.1l14.1 16.3.1.1s.1 0 .1.1h.6s.1 0 .1-.1l.1-.1L98.5 122s0-.1.1-.1c0 0 0-.1.1-.1 0-.1.1-.2.1-.3v-.2s0-.1-.1-.1c0 0 0-.1-.1-.1l-5.5-6.7c-.1-.1-.1-.1-.2-.1H84l-8.8-.1zm-.1 2l2.5 4.7h-6.4l3.9-4.7zm8.7 19.3l-4.2-13.2H88l-4.2 13.2zm-3.6-14.6l3.7-4.8 3.6 4.8h-7.3zm-9 1.4h6.9l4 12.5-10.9-12.5zm14.3 12.5l3.9-12.5h7l-10.9 12.5zm11-13.9H90l2.5-4.7 4 4.7zm-5.2-5.3l-2.5 4.7-3.5-4.7h6zm-8.9 0l-3.6 4.7-2.5-4.7h6.1zM149 25.3l-.8-8.6v-.2c0-.1-.1-.1-.1-.2-.1-.1-.1-.1-.2-.1h-.2L126 14.5h-.3s-.1 0-.1.1c0 0 0 .1-.1.1v.4l1.5 21.6v.1c0 .1.1.2.1.2.1 0 .1.1.2.1h.2l8.6.8h.3s.1 0 .1-.1c0 0 .1 0 .1-.1l12.2-12.2s.1-.1.1-.2v-.1c.1.3.1.2.1.1zm-7.6 5.3l-5.9-.8 5.1-5.1.8 5.9zm-13.3 4.6l-1.2-16.6 6.1 11.7-4.9 4.9zm5.9-6l-6.4-12.3 12.3 6.4-5.9 5.9zm12.9-10.9l.6 6.1-5.1-1.6 4.5-4.5zm-1-1l-4.9 4.9-11.7-6 16.6 1.1zM129 36.2l4.5-4.5 1.5 5.1-6-.6zm7.4 0l-1.5-5.1 5.8.8-4.3 4.3zm6.3-6.2l-.8-5.8 5 1.6-4.2 4.2z" class="B"/><use xlink:href="#N"/><path d="M3.3 175.8c-.3-.3-.7-.3-1 0L1.2 177l-.2-.2v2.3l.2-.2 1.2 1.2c.1.1.3.2.5.2s.4-.1.5-.2c.3-.3.3-.7 0-1L2.2 178l1.2-1.2c.2-.3.2-.7-.1-1z"/><circle cx="11.8" cy="163.8" r="1.2"/><circle cx="11.8" cy="167.9" r="1.2"/><path d="M15.2 162.8c-.5.5-.5 1.2 0 1.7s1.2.5 1.7 0 .5-1.2 0-1.7c-.5-.4-1.2-.4-1.7 0z"/><circle cx="16.1" cy="167.8" r="1.2"/><path d="M137 48.3c-.3-.3-.7-.3-1 0l-1.3 1.3-1.3-1.3c-.3-.3-.7-.3-1 0s-.3.7 0 1l1.3 1.3-1.3 1.3c-.3.3-.3.7 0 1 .1.1.3.2.5.2s.4-.1.5-.2l1.3-1.3L136 53c.1.1.3.2.5.2s.4-.1.5-.2c.3-.3.3-.7 0-1l-1.3-1.3 1.3-1.3c.3-.3.3-.8 0-1.1zm14.3 15c.5-.5.5-1.3 0-1.8s-1.3-.5-1.8 0-.5 1.3 0 1.8 1.3.5 1.8 0zm-4.6 0c.5-.5.5-1.3 0-1.8s-1.3-.5-1.8 0-.5 1.3 0 1.8 1.3.5 1.8 0zm2.9 2.9c-.5.5-.5 1.3 0 1.8s1.3.5 1.8 0 .5-1.3 0-1.8-1.3-.5-1.8 0zm-4.6 0c-.5.5-.5 1.3 0 1.8s1.3.5 1.8 0 .5-1.3 0-1.8-1.3-.5-1.8 0z"/><g class="B"><use xlink:href="#O"/><path d="M197.8 26.9a12.04 12.04 0 0 0 12-12 12.04 12.04 0 0 0-12-12 12.04 12.04 0 0 0-12 12 12.04 12.04 0 0 0 12 12zm0-22.6c5.9 0 10.6 4.8 10.6 10.6 0 5.9-4.8 10.6-10.6 10.6-5.9 0-10.6-4.8-10.6-10.6 0-5.9 4.8-10.6 10.6-10.6zm0 19.9a9.39 9.39 0 1 0-9.4-9.4c0 5.2 4.3 9.4 9.4 9.4zm0-17.3c4.4 0 8 3.6 8 8s-3.6 8-8 8-8-3.6-8-8c.1-4.4 3.6-8 8-8z"/></g><use xlink:href="#P"/><g class="B"><use xlink:href="#Q"/><use xlink:href="#R"/></g><use xlink:href="#P" x="-64.9" y="131.6"/><path d="M38.5 10.5c1.2 0 2.4-.5 3.3-1.4l7.6-7.6c.2-.2.3-.3.4-.5h-1.9l-7.1 7.1a3.32 3.32 0 0 1-4.7 0L29 1h-2l8.1 8.1c1 .9 2.2 1.4 3.4 1.4zm-2.3-7.1c2 0 3.8-.8 5.2-2.1.1-.1.1-.2.2-.2h-2.2c-1 .6-2.1 1-3.2 1C35.1 2 34 1.6 33 1h-2.2l.2.2c1.4 1.4 3.3 2.2 5.2 2.2zM37.4 1h-2.2c.4.1.7.1 1.1.1.3 0 .7 0 1.1-.1z"/><g class="B"><path d="M43 78.5c4.2 0 7.9-1.8 10.6-4.7 0 0 .1 0 .1-.1 2.3-2.5 3.7-5.9 3.7-9.5a13.91 13.91 0 0 0-3.7-9.5c-.1-.1-.1-.2-.2-.2-2.6-2.8-6.3-4.5-10.4-4.5-7.6 0-13.8 6-14.3 13.5-.2.1-.3.3-.3.6 0 .2.1.4.3.6 0 7.5 6.4 13.8 14.2 13.8zm-10.1-6.3c-1.7-2.1-2.7-4.7-2.8-7.6H37a10.39 10.39 0 0 1-4.1 7.6zm5.5-7.6h3.9V77c-3.3-.2-6.3-1.6-8.5-3.8 2.8-2 4.5-5.2 4.6-8.6zM43.7 77V64.6H47c.1 3.6 2 6.9 4.9 8.9-2.2 2.1-5 3.4-8.2 3.5zm9.2-4.6c-2.7-1.7-4.3-4.7-4.5-7.9h7.5c-.1 3.1-1.2 5.8-3 7.9zm-4.4-9.2c.3-3 1.9-5.6 4.4-7.3 1.7 2 2.8 4.5 3 7.3h-7.4zm-1.5 0h-3.3V51.3c3.2.2 6 1.5 8.2 3.5-2.8 2-4.6 5-4.9 8.4zm-4.7-11.9v11.9h-3.9c-.3-3.2-1.9-6.2-4.5-8.1 2.1-2.2 5.1-3.6 8.4-3.8zm-9.4 4.8c2.3 1.7 3.8 4.2 4.1 7h-6.8c.1-2.6 1.1-5 2.7-7z"/><use xlink:href="#S"/><path d="M21 112.3c-.3-.3-.7-.3-1 0s-.3.7 0 1l1.6 1.7c-.1.2-.2.4-.2.5-.1.2-.1.4-.1.7 0 .8.4 1.7 1.1 2.5.8.9 1.7 1.4 2.7 1.5h.7c1.7 4.8 5.1 9.9 10 15 .1.1.3.2.5.2s.4-.1.5-.2l11.6-11.1c.3-.3.3-.7 0-1-5.1-5.3-10-9-14.5-10.9v-.5c0-1-.5-1.9-1.4-2.8-.8-.8-1.6-1.2-2.4-1.2-.2 0-.5 0-.7.1-.3 0-.5.1-.7.2l-1.6-1.6c-.3-.3-.7-.3-1 0s-.3.7 0 1l1.5 1.6c-.5.6-.9 1.4-1.3 2.5-.1.3-.2.6-.2.8-.2.1-.5.1-.9.2-1.2.4-2.1.9-2.8 1.4l-1.4-1.6zm26 11.2l-10.6 10.1c-4.6-4.9-7.7-9.7-9.3-14.2l6.3-6c4.3 1.9 8.8 5.2 13.6 10.1zM23.3 115c.5-.5 1.3-.9 2.4-1.2.5-.1.9-.2 1.2-.3s.5-.3.5-.5c.1-.3.2-.7.3-1.1a6.98 6.98 0 0 1 1.2-2.3l.1-.1s.1 0 .1-.1c0 0 0-.1.1-.1.1-.1.2-.1.4-.1h.5c.5 0 1 .3 1.5.8.6.6.9 1.2 1 1.8 0 .2 0 .4-.1.6l-6.5 6.2c-.2.1-.4.1-.7.1-.6 0-1.2-.4-1.8-1-.5-.6-.8-1.1-.8-1.6v-.4c.1 0 .2-.3.6-.7zm135.4-35.6c-.8-.8-1.6-1.2-2.4-1.2-.2 0-.5 0-.7.1-.3 0-.5.1-.7.2l-1.6-1.6c-.3-.3-.7-.3-1 0s-.3.7 0 1l1.5 1.6c-.5.6-.9 1.4-1.3 2.5-.1.3-.2.6-.2.8-.2.1-.5.1-.9.2-1.2.4-2.1.9-2.8 1.4l-1.5-1.6c-.3-.3-.7-.3-1 0s-.3.7 0 1l1.6 1.7c-.1.2-.2.4-.2.5-.1.2-.1.4-.1.7 0 .8.4 1.7 1.1 2.5.8.9 1.7 1.4 2.7 1.5h.7c1.7 4.8 5.1 9.9 10 15 .1.1.3.2.5.2s.4-.1.5-.2l11.6-11.1c.3-.3.3-.7 0-1-5.1-5.3-10-9-14.5-10.9v-.5c0-1-.4-1.9-1.3-2.8zm-9.1 8.8c-.5-.6-.8-1.1-.8-1.6v-.4s.1-.3.4-.6l.1-.1c.5-.5 1.3-.9 2.4-1.2.5-.1.9-.2 1.2-.3s.5-.3.5-.5c.1-.3.2-.7.3-1.1a6.98 6.98 0 0 1 1.2-2.3l.1-.1s.1 0 .1-.1c0 0 0-.1.1-.1.1-.1.2-.1.4-.1h.5c.5 0 1 .3 1.5.8.6.6.9 1.2 1 1.8 0 .2 0 .4-.1.6l-6.5 6.2c-.2.1-.4.1-.7.1-.5 0-1.1-.4-1.7-1zm23.5 5.8l-10.6 10.1c-4.6-4.9-7.7-9.7-9.3-14.2l6.3-6c4.3 1.9 8.8 5.2 13.6 10.1z"/><use xlink:href="#T"/><path d="M58.7 149.3c1 1 2.5 1.5 4 1.5 2.2 0 4.8-1.1 6.8-3.1 3.4-3.4 4.1-8.2 1.5-10.8l-7.6-7.6c-1.6-1.6-3.6-2.4-5.8-2.4a8.25 8.25 0 0 0-5.8 2.4l-10.4 10.4c-.3.3-.3.7 0 1l8.8 8.8c.1.1.3.2.5.2s.4-.1.5-.2l3.9-3.9 3.6 3.7zm9.8-2.5c-2.8 2.8-6.8 3.5-8.8 1.5s-1.3-5.9 1.5-8.8c1.7-1.7 3.9-2.7 5.8-2.7 1.2 0 2.2.4 3 1.1 2 2.1 1.3 6-1.5 8.9zm-17.8 1.3l-7.8-7.8 6.2-6.2.6.6c.1.1.3.2.5.2s.4-.1.5-.2c.3-.3.3-.7 0-1l-.6-.6 2.7-2.7c1.3-1.3 3-2 4.8-2s3.5.7 4.8 2l5 5.1c-2.3-.1-5.1.9-7.2 3-.2.2-.4.4-.5.6l-1.8 1.8-.9-.9c-.3-.3-.7-.3-1 0s-.3.7 0 1l.9.9-6.2 6.2zm5.4-3.4l1.3-1.3c-.2.8-.3 1.6-.2 2.4l-1.1-1.1z"/></g><use xlink:href="#U"/><path d="M167.6 133.6c3.4-3.4 4.1-8.2 1.5-10.8l-7.6-7.6c-1.6-1.6-3.6-2.4-5.8-2.4a8.25 8.25 0 0 0-5.8 2.4l-10.4 10.4c-.1.1-.2.3-.2.5s.1.4.2.5l8.8 8.8c.1.1.3.2.5.2s.4-.1.5-.2l3.9-3.9 3.6 3.6c1 1 2.5 1.5 4 1.5 2.3 0 4.8-1 6.8-3zm-18.7.3L141 126l6.2-6.2.6.6c.1.1.3.2.5.2s.4-.1.5-.2c.3-.3.3-.7 0-1l-.6-.6 2.7-2.7c1.3-1.3 3-2 4.8-2s3.5.7 4.8 2l5 5.1c-2.3-.1-5.1.9-7.2 3-.2.2-.4.4-.5.6l-1.8 1.8-.9-.9c-.3-.3-.7-.3-1 0s-.3.7 0 1l.9.9-6.1 6.3zm5.4-3.4l1.3-1.3c-.2.8-.3 1.6-.2 2.4l-1.1-1.1zm3.6 3.6c-2-2-1.3-5.9 1.5-8.8 1.7-1.7 3.9-2.7 5.7-2.7 1.2 0 2.2.4 3 1.1 2 2 1.3 5.9-1.5 8.8s-6.7 3.6-8.7 1.6zm3.4-6.8c-.7.7-1.2 1.5-1.4 2.2-.3.9-.2 1.7.4 2.2.3.3.8.5 1.3.5.3 0 .6 0 .9-.1.8-.2 1.5-.7 2.2-1.4s1.2-1.5 1.4-2.2c.3-.9.2-1.7-.4-2.2-.9-1.1-2.8-.6-4.4 1zm2.4 2.3c-.5.5-1.1.9-1.6 1.1-.4.1-.7.1-.8 0s-.1-.4 0-.8c.2-.5.6-1.1 1.1-1.6.8-.8 1.7-1.1 2.1-1.1.1 0 .2 0 .3.1.2.1 0 1.2-1.1 2.3z" class="B"/><use xlink:href="#U" x="98.2" y="-14.2"/><path d="M30.7 40.9s.1 0 .1-.1l2.7-2.7c.3-.3.3-.7 0-1L30.4 34c-.3-.3-.7-.3-1 0l-2.7 2.7s0 .1-.1.1c-2-.5-4.2 0-5.7 1.5L9.7 49.5A2.46 2.46 0 0 0 7 50a2.34 2.34 0 0 0-.7 1.7c0 .7.3 1.3.7 1.7l7 7a2.34 2.34 0 0 0 1.7.7c.7 0 1.3-.3 1.7-.7a2.46 2.46 0 0 0 .5-2.7l11.2-11.2c1.7-1.4 2.2-3.6 1.6-5.6zm-.8-5.4l2.2 2.2-1.7 1.7-2.2-2.2 1.7-1.7zm-8 3.8c1.8-1.8 4.6-1.8 6.4 0 1.7 1.7 1.7 4.3.3 6L19 42.2l2.9-2.9zm-5.4 20.2a1.09 1.09 0 0 1-1.5 0l-7-7a1.08 1.08 0 0 1-.3-.7c0-.3.1-.5.3-.7a1.08 1.08 0 0 1 .7-.3c.1 0 .3 0 .4.1 0 .1.1.1.1.2.1.1.2.2.4.2l6.8 6.8a.76.76 0 0 0 .2.4s.1.1.2.1c.1.2 0 .6-.3.9zm.7-2.8l-6.4-6.4 1.8-1.8 9.6 3.1-5 5.1zm6.2-6.2l-9.6-3.1 4-4 9.6 3.1-4 4zm130.9-35.7a2.34 2.34 0 0 0 1.7.7 2.41 2.41 0 0 0 1.7-.7 2.46 2.46 0 0 0 .5-2.7L169.3 1h-2l-3.7 3.7-9.6-3.1.6-.6h-2l-2.7 2.7a2.46 2.46 0 0 0-2.7.5c-1 1-1 2.5 0 3.5l7.1 7.1zm-1.4-12l9.6 3.1-5.1 5.1-6.4-6.4 1.9-1.8zm-4.7 2.5a1.08 1.08 0 0 1 .7-.3c.1 0 .3 0 .4.1 0 .1.1.1.1.2.1.1.2.2.4.2l6.8 6.8a.76.76 0 0 0 .2.4s.1.1.2.1c.1.4.1.8-.2 1.1a1.09 1.09 0 0 1-1.5 0l-7-7c-.5-.6-.5-1.2-.1-1.6zM4.2 45.4a.68.68 0 0 0-.7-.7.68.68 0 0 0-.7.7.47.47 0 0 1-.5.5.47.47 0 0 1-.5-.5v-8.1h9.5c.2 0 .4-.1.5-.2.1-.2.2-.4.2-.6-.6-5.3-4.9-9.3-10.1-9.6V26a.68.68 0 0 0-.7-.7v3c1.9 0 3.5 3.3 3.9 7.6H1v11c.3.3.8.5 1.2.5 1.1-.1 2-1 2-2zm0-16.7c3.1 1.1 5.5 3.7 6.2 7.1h-4c-.3-3-1.1-5.5-2.2-7.1zm112.2 116.1c.2 0 .4-.1.5-.2.1-.2.2-.4.2-.6-.7-6.2-5.9-11-12.1-11.3v-1.2a.68.68 0 1 0-1.4 0v1.2c-6.2.3-11.3 5.1-12.1 11.3 0 .2 0 .4.2.6.1.2.3.2.5.2h11.5a.76.76 0 0 0-.2.4v9.4a2.22 2.22 0 0 0 2.2 2.2 2.22 2.22 0 0 0 2.2-2.2.68.68 0 1 0-1.4 0c0 .4-.3.8-.8.8-.4 0-.8-.3-.8-.8v-9.4c0-.2-.1-.3-.2-.4h11.7zm-.8-1.4h-5.1c-.3-3.8-1.3-6.9-2.8-8.8 4 1.2 7.1 4.6 7.9 8.8zm-14.6-8.8c-1.5 1.9-2.5 5-2.8 8.8h-5.1c.8-4.2 3.9-7.6 7.9-8.8zm-1.4 8.8c.4-5.2 2.5-9.3 4.8-9.3s4.4 4.1 4.8 9.3h-9.6z" class="B"/><path d="M105.4 5.8c.2 0 .4-.1.5-.2l4.6-4.6h-2l-3.1 3.1-3.1-3.1h-2l4.6 4.6c.1.1.3.2.5.2z"/><path d="M197.4 89.6l-4-4c-.1-.1-.3-.2-.4-.3 0-.1-.1-.2-.2-.3l-1.1-1-.2-3.8c0-.2-.1-.3-.2-.5l-15.5-15.4c-.1-.1-.3-.2-.5-.2s-.4.1-.5.2l-7.2 7.2c-.3.3-.3.7 0 1l15.5 15.4c.1.1.3.2.5.2l3.8.2 1.1 1c.1.1.2.1.3.2a1.38 1.38 0 0 0 .3.4l4 4c.3.3.7.5 1.1.5s.8-.2 1.1-.5l2.2-2.2c.5-.6.5-1.5-.1-2.1zm-9.3-2.6c-.1-.1-.3-.2-.5-.2h-.2l-3.5-.2L169.2 72l6.2-6.2 14.8 14.7.2 3.5v.2c0 .2.1.4.2.5l.8.8-2.3 2.3-1-.8zm8.3 3.7l-2.2 2.2h-.2l-4-4v-.2l2.2-2.2c.1-.1.1-.1.2 0l4 4c.1.1.1.2 0 .2zM178 69.9c-.1-.1-.3-.2-.5-.2s-.4.1-.5.2l-3.6 3.6c-.3.3-.3.7 0 1l10 10.2c.1.1.3.3.5.2.2 0 .4-.1.5-.2l3.6-3.6c.3-.3.3-.7 0-1l-10-10.2zm6 13.4l-9.1-9.2 2.6-2.6 9.1 9.2-2.6 2.6z" class="B"/><path d="M205.2 178.2a8.25 8.25 0 0 0 2.4 5.8c1.3 1.3 2.9 2.1 4.7 2.3v-1.4c-1.4-.2-2.7-.9-3.7-1.9-1.3-1.3-2-3-2-4.8s.7-3.5 2-4.8l3.7-3.7v-2l-4.7 4.7c-1.6 1.5-2.4 3.6-2.4 5.8zm5.9-2.4c-.3-.3-.7-.3-1 0s-.3.7 0 1l1.2 1.2-1.2 1.2c-.3.3-.3.7 0 1 .1.1.3.2.5.2s.4-.1.5-.2l1.2-1.2v-2l-1.2-1.2zm1.2-54.2v-2.1l-6.4 7.4c-.3.3-1.1 1.9.1 3.2l5.8 5.8c.2.2.4.3.6.4v-1.8L207 129c-.5-.5-.1-1.1-.1-1.2l5.4-6.2zm-.6 43.8l.6.7v-1.9c-.2 0-.4 0-.5.2a.67.67 0 0 0-.1 1zM1 147.3l3.6 3.6-3.6 3.7v2l5.1-5.1c.3-.3.3-.7 0-1L3 147.3l2.7-2.7c.8-.8.8-2.2 0-3a2.18 2.18 0 0 0-3 0L1 143.3v2l2.7-2.7c.3-.3.7-.3 1 0s.3.7 0 1L2 146.3l-1-1v2zm211.3-51.7c-3.6 3.1-6.7 6.3-8.8 9.2-2.3 3.2-2.9 5.6-1.8 6.9.5.6 1.3.9 2.2.9 2.1 0 5.1-1.3 8.4-3.2v-1.7c-5 3.1-8.7 4.1-9.5 3.1-.4-.5-.2-2.1 1.7-4.9.7.4 1.5.8 2.3 1s1.7.4 2.5.4c1.1 0 2.1-.2 3-.7v-1.4c-.1 0-.3 0-.4.1-1.3.7-3 .8-4.7.3-.7-.2-1.3-.5-1.9-.8a35.67 35.67 0 0 1 3.3-3.8c.7.6 1.5 1 2.4 1.4.4.2.8.3 1.3.4v-1.4c-.3-.1-.5-.1-.8-.2-.7-.3-1.3-.6-1.9-1 .8-.8 1.7-1.6 2.6-2.4v-2.2h.1zM130.5 7.7c1.2 0 2.4-.5 3.3-1.4l5.3-5.3h-3.8c.5.2.9.4 1.3.6l-3.7 3.7a3.32 3.32 0 0 1-4.7 0L123.8 1h-2l5.3 5.3c1 .9 2.2 1.4 3.4 1.4zm80.8 75.8l-3.5-3.5c-.3-.3-.7-.3-1 0s-.3.7 0 1l5.5 5.5v-3.8l-1 .8z"/></g><g opacity=".2"><path d="M218.4 24c.9.9 2.1 1.3 3.3 1.3.6 0 1.2-.1 1.7-.3l3.9 3.3c.4.4.8.5 1.4.5 1.9 0 4.8-1.9 7.2-4.3 3.1-3.1 5.3-7 3.8-8.6l-3.4-3.9c.7-1.7.3-3.7-1-5s-3.2-1.7-4.8-1.1c-3.7-2.3-8.7-1.9-11.9 1.3-3.1 3.1-3.6 8-1.1 11.6-.8 1.8-.5 3.8.9 5.2zm20.2-7c.5.5-.4 3.3-3.7 6.6s-6.1 4.2-6.6 3.7l-3.6-3.1c.1-.1.2-.1.2-.2.4-.4.7-.9 1-1.4.1-.3.2-.5.3-.8.8-.2 1.6-.6 2.2-1.2s1-1.4 1.2-2.2c.8-.2 1.6-.6 2.2-1.2s1-1.4 1.2-2.2c.3-.1.7-.2 1-.4.5-.2.9-.5 1.2-.9l.2-.2 3.2 3.5zm-19-8.8c1.5-1.5 3.5-2.3 5.6-2.3 1.7 0 3.3.5 4.7 1.6.2.2.5.2.7.1 1.2-.6 2.7-.3 3.6.6 1 1 1.2 2.5.5 3.8-.1.3-.3.5-.5.7s-.5.4-.8.6-.7.3-1.1.3a.65.65 0 0 0-.6.6c-.1.7-.4 1.4-.9 1.9s-1.2.8-1.9.9a.65.65 0 0 0-.6.6c-.1.7-.4 1.4-.9 1.9s-1.2.8-1.9.9a.65.65 0 0 0-.6.6c0 .3-.1.6-.2.9a3.59 3.59 0 0 1-.7 1c-.2.2-.5.4-.7.5-1.4.8-2.9.6-3.9-.4s-1.2-2.6-.5-3.8c.1-.2.1-.5 0-.8-2.3-3.1-2-7.5.7-10.2z" class="B"/><use xlink:href="#A" x="207.7" y="3.3"/><use xlink:href="#A" x="211"/><use xlink:href="#A" x="214.3" y="-3.3"/><path d="M301.7 27.3c-1.4-1.4-3.7-1.4-5.1 0l-.6.7c-.1-.6-.3-1.1-.7-1.5s-1-.7-1.6-.8c-.3 0-.6 0-.9.1-.9-.9-2.3-1.1-3.4-.6-1.5-.9-3.5-.7-4.8.6-.2.2-.4.5-.6.8-.8-.1-1.7.2-2.2.9-.2.3-.4.7-.4 1.1a3.09 3.09 0 0 0-2 1.1c-1.5 1.5-1.5 3.8-.2 5.3-.7 1.2-.6 2.7.4 3.7.1.1.3.2.4.3 0 .4 0 .8.2 1.2.1.3.3.6.6.9.5.5 1.2.8 1.8.8.2 0 .3 0 .5-.1l.2.2 10.3 10.3c.7.7 1.7 1.1 2.6 1.1s1.9-.4 2.6-1.1l7.7-7.7c1.4-1.4 1.4-3.5.2-5l1.1-1.1c.7-.7 1-1.6 1-2.5 0-1-.4-1.9-1-2.5l-6.1-6.2zm2.3 9.5l-5.6-5.6.8-.8 5.6 5.6-.8.8zm-24.5-4.3c0-.7.3-1.3.7-1.8.5-.5 1.1-.7 1.8-.7.2 0 .4-.1.6-.3.1-.2.2-.4.1-.6-.1-.3 0-.5.1-.7.3-.4.7-.5 1.1-.3.2.1.4.1.6 0a.78.78 0 0 0 .4-.4c.1-.3.3-.6.6-.9.9-.9 2.3-1 3.3-.2a.61.61 0 0 0 .8 0c.5-.4 1.2-.4 1.7 0l-11 11a1.68 1.68 0 0 1 .1-2.2c.1-.1.2-.3.2-.5a.55.55 0 0 0-.3-.5l-.2-.2c-.3-.4-.6-1.1-.6-1.7zm2.2 7.6c-.1-.1-.2-.3-.3-.4-.2-.4-.1-1 .3-1.3l10.9-10.9c.2-.2.5-.4.9-.4h.1c.3 0 .5.1.7.3.4.4.5.9.3 1.3-.1.1-.1.3-.3.4l-10.9 11a1.38 1.38 0 0 1-.4.3c-.5.1-1 0-1.3-.3zm23.8 3.5l-7.7 7.7c-.9.9-2.4.9-3.2 0l-10.3-10.2.1-.1 11-11 10.3 10.3c.7 1 .7 2.4-.2 3.3zm1.4-6.1l-1.1 1.1-.8-.8 1.1-1.1a1.09 1.09 0 0 0 0-1.5l-6.1-6.1a1.09 1.09 0 0 0-1.5 0l-1.1 1.1-.8-.8 1.1-1.1c.8-.8 2.2-.8 3.1 0l6.1 6.1c.4.4.6 1 .6 1.5 0 .6-.2 1.2-.6 1.6z" class="B"/><use xlink:href="#B" x="211"/><g class="B"><use xlink:href="#C" x="211"/><path d="M215 89c.2 0 .4-.1.5-.2.3-.3.3-.7 0-1l-3.3-3.3 6.2-6.2 8.6-.3c.3.7.7 1.4 1.3 2 1.2 1.2 2.8 1.8 4.4 1.8s3.2-.6 4.4-1.8 1.8-2.7 1.8-4.4c0-1.6-.6-3.2-1.8-4.4-2.2-2.2-5.7-2.4-8.1-.5l-8.8-8.7c-.4-.4-1-.5-1.5-.3s-.9.7-.9 1.2l-.4 14.3-5.4 5.4v3.6l2.5 2.5a.55.55 0 0 0 .5.3zm4-21l8.5 8.5-8.7.2.2-8.7zm17 4.3a4.76 4.76 0 0 1 1.4 3.4 4.76 4.76 0 0 1-1.4 3.4c-1.9 1.9-4.9 1.9-6.7 0-.3-.3-.6-.6-.8-1l4.2-.1c.5 0 1-.4 1.2-.9s.1-1.1-.3-1.5l-3.7-3.7c1.9-1.5 4.5-1.3 6.1.4zM219.2 63l13.5 13.4-3.2.1-10.4-10.4.1-3.1zm-4.9 73c.1 0 .1-.1.2-.1l11.9-9.9.6.6c.4.4.9.6 1.4.6s1-.2 1.4-.6.6-.9.6-1.4-.2-1-.6-1.4l-.5-.5.9-1.9c.2-.4.3-1.3-.3-2 0-.1-.1-.1-.1-.1l-7-7c-.8-.8-1.7-.6-2.2-.4l-1.9.9-.7-.7c-.8-.8-2.1-.8-2.8 0-.4.4-.6.9-.6 1.4s.2 1 .6 1.4l.5.5-3.7 3.9v2.1l4.6-5.3 8.7 8.7-11.7 9.8c-.1.1-.8.5-1.3 0l-.3-.2v1.8c.3.1.6.2.9.2.6 0 1-.2 1.4-.4zm6.8-23.1s.4-.1.6.1l7 7c.3.3.2.6.1.7l-.7 1.4-8.5-8.5 1.5-.7zm-5-.1a.76.76 0 0 1 .4-.2c.2 0 .3.1.4.2l11.8 11.8a.76.76 0 0 1 .2.4c0 .2-.1.3-.2.4a.76.76 0 0 1-.4.2c-.2 0-.3-.1-.4-.2l-11.8-11.8a.76.76 0 0 1-.2-.4.76.76 0 0 1 .2-.4zm.8 16.5c1.2 0 2.4-.4 3.3-1.3 1.8-1.8 1.8-4.7 0-6.5a4.59 4.59 0 0 0-6.5 0c-1.8 1.8-1.8 4.7 0 6.5.9.8 2 1.3 3.2 1.3zm-2.2-6.9c.6-.6 1.4-.9 2.3-.9s1.6.3 2.3.9c1.2 1.2 1.2 3.3 0 4.5s-3.3 1.2-4.5 0a3.01 3.01 0 0 1-.1-4.5zm10.4 27.4c2.1 2.1 5.3 2.9 8.2 2.1l1.4 1.4c.7.6 1.6.9 2.5.9h.3c0 .1.1.2.2.3l1.9 1.9c-.7 1.2-.5 2.8.6 3.8.6.6 1.5.9 2.3.9s1.7-.3 2.3-.9c.4-.4.7-1 .9-1.6.6-.1 1.1-.4 1.6-.9 1.3-1.3 1.3-3.3 0-4.6-1-1-2.6-1.2-3.8-.6l-1.9-1.9c-.1-.1-.1-.1-.2-.1.1-1.1-.2-2.1-1-3 0-.1-.1-.1-.1-.2l-1.1-1.1c.8-2.9 0-6-2.1-8.2-3.2-3.2-8.5-3.2-11.7 0-3.5 3.3-3.5 8.5-.3 11.8zm15.6 2.2l1.9 1.9c.3.3.7.3 1 0a1.85 1.85 0 0 1 2.5.1c.7.7.7 1.9 0 2.6a1.85 1.85 0 0 1-1.2.5.68.68 0 0 0-.7.7c0 .5-.2.9-.5 1.2-.7.7-1.9.7-2.6 0s-.7-1.7-.1-2.5a.91.91 0 0 0 0-1l-1.9-1.9a3.8 3.8 0 0 0 1.6-1.6zm-4.9-12.9c1.9 1.9 2.5 4.7 1.6 7.1-.1.3 0 .5.2.7l.7.7.8.8c.7.7.8 1.8.4 2.7s-1.3 1.3-1.3 1.3c-.9.4-1.9.3-2.6-.3l-1.6-1.6c-.1-.1-.3-.2-.5-.2h-.2c-2.5.9-5.3.2-7.1-1.6a6.82 6.82 0 0 1 0-9.7c2.6-2.6 7-2.6 9.6.1z"/></g><path d="M226.7 148.2c1.2 1.2 2.7 1.8 4.3 1.8.7 0 1.3-.1 2-.3.4-.1.6-.5.4-.9-.1-.4-.5-.6-.9-.4-1.7.6-3.6.2-4.8-1.1-.9-.9-1.4-2-1.4-3.3 0-.4-.3-.7-.7-.7s-.7.3-.7.7c0 1.5.6 3.1 1.8 4.2z"/><path d="M334.3 73.6c-1.5-1.5-3.9-1.5-5.3 0-.5.5-.9 1.2-1 1.9-.7.1-1.4.5-1.9 1-.7.7-1.1 1.7-1.1 2.7s.4 2 1.1 2.7c1.2 1.2 3.1 1.4 4.6.6l2.3 2.3c.1.1.2.1.3.2-.1 1.3.2 2.6 1.1 3.6l1.6 1.6c-1 3.5-.1 7.3 2.5 9.9 1.9 1.9 4.4 2.9 7 2.9 2.7 0 5.1-1 7-2.9 3.9-3.9 3.9-10.2 0-14-2.6-2.6-6.4-3.5-9.9-2.5l-1.4-1.4c-.1-.1-.2-.2-.4-.3-1-.8-2.2-1.1-3.4-1 0-.1-.1-.3-.2-.4l-2.3-2.3c.8-1.5.6-3.4-.6-4.6zm5.6 9.3c.1.1.2.2.3.2l1.7 1.7c.2.2.5.3.7.2 3.1-1.1 6.5-.3 8.8 2 3.3 3.3 3.3 8.7 0 12a8.39 8.39 0 0 1-6 2.5 8.39 8.39 0 0 1-6-2.5c-2.3-2.3-3.1-5.8-2-8.8.1-.3 0-.5-.2-.7l-1.7-1.7s-.1-.1-.1-.2c-.8-.9-1-2.3-.5-3.5.5-1.1 1.7-1.7 1.7-1.7 1-.4 2.3-.2 3.3.5zm-3.9-1.7c-.1 0-.1 0 0 0-.1 0-1.6.8-2.4 2.3l-2.5-2.5c-.3-.3-.7-.3-1 0-.9.8-2.3.7-3.2-.1-.9-.9-.9-2.4 0-3.3.4-.4 1-.7 1.6-.7a.68.68 0 0 0 .7-.7c0-.6.3-1.2.7-1.6.9-.9 2.4-.9 3.3 0a2.33 2.33 0 0 1 .1 3.2.91.91 0 0 0 0 1l2.7 2.4z" class="B"/><use xlink:href="#D" x="211"/><path d="M269.2 99.9c-.5.5-.8 1.2-.9 2l-.5.2c-.4.2-.7.4-1 .8l-1.5.2c-.7.1-1.2.5-1.6 1-.2.3-.3.8-.3 1.2h-.1l-.3-.1-.5-.3-.2-.3c-.8-1-2.1-1.5-3.2-1.1-.2.1-.3.1-.5.3-.9.6-1.1 1.8-.7 2.9l.2.6.2.3c.1.2.3.5.4.7l.5.6c.2.2.4.4.5.6l.4.3c.2.2.4.4.7.5.3.2.6.4.8.6l.3.2c.3.1.6.3.9.4l.9.3.4.1c.2.1.5.1.8.2l.8.1h.4c.6.5 1.3.9 2.1.9h.4l2.1-.3c.7.8 1.7 1.2 2.7 1.2.4 0 .8-.1 1.1-.2l3.1-1.3c.4.1.8.2 1.3.2.9 0 1.6-.3 2.2-.9l2.4-2.4c.9-.9 1.1-2.2.6-3.5l1.3-3c.5-1.2.1-2.8-1-3.8l.3-2.1c.1-.8-.2-1.8-.8-2.4v-.4l-.1-.8c0-.3-.1-.6-.2-.8l-.1-.6c-.1-.2-.2-.5-.3-.8s-.3-.6-.4-.9l-.2-.3c-.2-.2-.3-.5-.5-.8s-.4-.5-.6-.7l-.3-.4c-.2-.2-.4-.4-.6-.5l-.6-.5c-.2-.2-.5-.3-.7-.4l-.8-.4c-1.1-.5-2.3-.2-2.9.7-.1.1-.2.3-.2.5-.4 1.1 0 2.4 1.1 3.2l.2.1.4.4.2.4v.1c-.5 0-.9.1-1.3.4-.5.3-.8.9-.9 1.5l-.2 1.4c-.3.3-.6.6-.8 1l-.2.5c-.8.1-1.5.3-2 .9l-2.7 2.5zm-4 10.8c-.2 0-.4-.1-.6-.1l-.4-.1c-.2-.1-.4-.1-.7-.3-.3-.1-.5-.2-.7-.4l-.2-.1c-.2-.1-.4-.3-.7-.5-.2-.2-.4-.3-.5-.5l-.3-.3c-.1-.1-.3-.3-.4-.5l-.4-.6c-.1-.2-.3-.4-.4-.6l-.3-.7c-.2-.5-.1-1 .2-1.2 0 0 .1-.1.2-.1s.2-.1.3-.1c.4 0 .9.3 1.3.7l.4.4s.1.1.2.1l.4.3.2.2a.35.35 0 0 0 .2.1l.1.1h.1c.1 0 .1 0 .2.1h.1l.2-.7-.1.7h.5l1.1 4.1zm3.3.9c-.5.1-1-.2-1.4-.6-.2-.2-.3-.4-.4-.6l-1.6-4.6v-.1c-.1-.3-.1-.6.1-.8a.55.55 0 0 1 .5-.3l.7-.1v.6c0 .1 0 .2.1.3v.2c0 .1.1.2.1.3 0 0 0 .1.1.1.1.1.1.3.2.4l3 5.1-1.4.1zm5.5.8c-.7.3-1.8-.1-2.4-.9l-.2-.2-3.4-5.7a.76.76 0 0 1-.2-.4c-.2-.5-.1-.9 0-1.2.1-.2.3-.4.5-.5l.2-.1c0 .1.1.2.1.3.2.6.6 1.1 1 1.5l6.3 6.3-1.9.9zm10.1-10.1l-.9 2-6.3-6.3c-.5-.5-1.1-.9-1.7-1.1-.1 0-.2-.1-.2-.1v-.1c.1-.2.2-.4.5-.5.4-.2 1-.2 1.6.1l5.8 3.5c.1 0 .1.1.2.1.9.6 1.4 1.6 1 2.4zM276.5 88c0-.1 0-.1.1-.2.2-.3.7-.4 1.2-.2l.4.2.3.2c.2.1.4.2.6.4l.6.4c.2.1.3.3.5.4l.3.3c.1.2.3.3.5.6.2.2.3.5.5.7l.1.2c.1.2.3.5.4.8.1.2.2.5.2.7l.1.4c0 .2.1.4.1.6v.1l-4-1.4v-.5l-.7.1.7-.2v-.2c0-.1 0-.1-.1-.2v-.1s0-.1-.1-.2l-.2-.3s-.1-.1-.1-.2l-.2-.3c0-.1-.1-.1-.1-.2l-.4-.3c-.6-.4-.9-1.1-.7-1.6zm-.3 5.9a.55.55 0 0 1 .3-.5c.2-.1.5-.2.8-.1h.2l4.6 1.6c.2.1.4.2.6.4.5.4.7 1 .6 1.4l-.2 1.4-5.1-3c-.1 0-.1-.1-.2-.1a4.82 4.82 0 0 0-.7-.3h-.1c-.2-.1-.4-.1-.6-.1h-.2v-.7zm-2.1 4.1c.3 0 .5.1.8.2.4.2.8.4 1.2.8l6 6c.3.3.6.7.7 1.1.4.9.3 1.8-.2 2.3l-2.4 2.4c-.5.5-1.4.6-2.3.2-.4-.2-.8-.4-1.1-.7l-6-6c-.3-.3-.6-.7-.7-1.1-.1-.3-.2-.6-.2-.8 0-.6.1-1.1.5-1.4l2.4-2.4c.2-.5.7-.6 1.3-.6zm-33 83.5h.4a4.03 4.03 0 0 0 3.3 1.7h.3c.8-.1 18.8-1.5 23.4-18.3.5-1.7-.2-3.4-1.5-4.4 0-2-1.2-3.8-3.2-4.3-1.3-.4-2.6-.1-3.7.6-.2-.1-.3-.1-.5-.2a3.75 3.75 0 0 0-4.5 2.5c-2.6 9.4-13.2 10.4-13.7 10.4-2 .1-3.5 1.9-3.3 3.9v.3c-1 .9-1.6 2.3-1.5 3.7.3 2.3 2.2 4.1 4.5 4.1zm26.1-17c-4.4 15.8-21.5 17.2-22.2 17.2-1.1.1-2-.5-2.6-1.4-.2-.4-.3-.7-.3-1.1-.1-1.5 1-2.8 2.5-2.9.6 0 14-1.2 17.4-13.3 0-.2.1-.3.2-.5 0-.1.1-.1.1-.1.1-.1.1-.2.2-.3 0-.1.1-.1.1-.2l.3-.3c.1-.1.2-.1.2-.2.1 0 .1-.1.2-.1.1-.1.3-.1.4-.2h.1c.1 0 .3-.1.4-.1h.6c.2 0 .3 0 .5.1l.6.3c1.2.7 1.7 1.9 1.3 3.1zm-25.6 6.4c.5 0 12-1.1 14.9-11.4a2.22 2.22 0 0 1 2.1-1.6h.4v.1c-.1.1-.2.3-.2.4s-.1.1-.1.2c-.1.2-.2.4-.2.7-3.4 12.1-17 13.4-17.6 13.4-.2 0-.4 0-.6.1-.1 0-.1 0-.2.1-.1 0-.2.1-.4.1 0-1.2.9-2 1.9-2.1zm-2.2 3.7c.4-.3 1-.5 1.5-.5.2 0 1.5-.1 3.3-.6a8.92 8.92 0 0 0 2-.6c.5-.2 1-.3 1.5-.5.6-.2 1.2-.5 1.7-.8.3-.1.6-.3.9-.5 3.9-2.1 7.8-5.6 9.5-11.6.2-.6.5-1.1.9-1.5.6-.5 1.3-.7 2-.7.3 0 .5 0 .8.1a2.91 2.91 0 0 1 2.1 2.3c-.1 0-.2 0-.4-.1-.1 0-.3 0-.4-.1h-.8c-.1 0-.3.1-.4.1s-.2 0-.4.1c-.1 0-.3.1-.4.2s-.2.1-.3.2-.2.2-.4.2c-.1.1-.2.1-.3.2l-.5.5c-.1.1-.2.3-.3.4s-.1.2-.2.3c-.1.2-.2.5-.3.8-3.1 11.1-15.6 12.2-16.1 12.3-2.3.2-4 2.1-3.8 4.4 0 .2.1.5.1.7-1.5-.1-2.6-1.3-2.7-2.8 0-.9.5-1.9 1.4-2.5z" class="B"/><use xlink:href="#E" x="211"/><use xlink:href="#F" x="211"/><use xlink:href="#G" x="211"/><path d="M279.5 167.5c.2.9.7 1.7 1.3 2.4l3.2 3.1c1 1 2.3 1.5 3.7 1.5 1.3 0 2.7-.5 3.7-1.5l10.8-10.8c2-2 2-5.3 0-7.3l-3.1-3.1c-.7-.7-1.5-1.1-2.4-1.3-.1-.8-.4-1.5-1-2-.8-.8-2-1.2-3.2-.9-.7.1-1.3.5-1.8.9l-13.2 13.2a3.5 3.5 0 0 0 0 5c.6.3 1.3.7 2 .8zm21.7-11.7c1.5 1.5 1.5 3.9 0 5.3L290.3 172c-1.5 1.5-3.9 1.5-5.3 0l-3.1-3.1c-.4-.4-.7-.9-.9-1.5.1 0 .3-.1.4-.2h.1c.2-.1.3-.2.5-.3h.1a.68.68 0 0 0 .7-.7l13.5-13.5c.1-.1.2-.3.3-.5v-.1c.1-.1.1-.3.2-.4.6.2 1.1.5 1.5.9l2.9 3.2zm-8.5-7c.7-.1 1.4.1 1.9.6.4.4.6 1 .6 1.6 0 .1 0 .3-.1.4-.1.4-.3.7-.6 1l-2.5 2.5V149c.3-.1.5-.2.7-.2zm-2 1.5v5.9l-3.4 3.4v-5.9l3.4-3.4zm-4.8 4.9v5.9l-3.2 3.2v-5.6c0-.1 0-.2-.1-.3l3.3-3.2zm-7.4 7.3l2.8-2.8v5.9l-.1.1c-.3.2-.7.3-1.1.4-.6 0-1.2-.2-1.6-.6-.8-.8-.8-2.1 0-3z" class="B"/><circle transform="matrix(.707107 -.707107 .707107 .707107 182.705421 92.651794)" cx="97.693" cy="80.48" r="1"/><path d="M308.3 84.1a.61.61 0 0 0 0 .8.61.61 0 0 0 .8 0 .61.61 0 0 0 0-.8.61.61 0 0 0-.8 0zm5.6 3.2a.61.61 0 0 0 0-.8.61.61 0 0 0-.8 0 .61.61 0 0 0 0 .8c.2.2.5.2.8 0zm0 5.4a.61.61 0 0 0 .8 0 .61.61 0 0 0 0-.8.61.61 0 0 0-.8 0 .61.61 0 0 0 0 .8z"/><use xlink:href="#H" x="211"/><use xlink:href="#H" x="214" y="-1.1"/><path d="M320.1 96.6a.61.61 0 0 0 0 .8.61.61 0 0 0 .8 0 .61.61 0 0 0 0-.8c-.3-.2-.6-.2-.8 0z"/><use xlink:href="#H" x="197.3" y="-12.9"/><use xlink:href="#H" x="211.1" y="-5.6"/><path d="M288 89.4c0 .8.3 1.6.9 2.2l18.7 18.7c.6.6 1.4.9 2.2.9s1.6-.3 2.2-.9.9-1.3.9-2.1c.2 0 .4.1.6.1a2.61 2.61 0 0 0 1.7-.7c.8-.8.9-2.1.3-3 .1 0 .3-.1.4-.2.1.2.2.5.4.7.1.1.3.2.5.2s.4-.1.5-.2l2-2a2.39 2.39 0 0 0 .7-1.3h.3c.2 0 .3 0 .5-.1 1-.2 1.8-.9 2.2-1.8 1.9-4.5 1.2-9.2-1.8-12.2l-9.4-9.4c-3-3-7.6-3.6-12.2-1.8-.9.4-1.6 1.2-1.8 2.2v.1c-.8-.1-1.6.1-2.2.7l-2 2c-.3.3-.3.7 0 1 .3.4.8.6 1.2.7-.1.2-.2.4-.2.5-.9-.6-2.2-.5-3 .3-.6.6-.8 1.5-.6 2.3-.8 0-1.5.3-2.1.9a3.1 3.1 0 0 0-.9 2.2zm26.3 13.9L296.1 85c-.1-.1-.1-.3-.1-.5 0-.3.1-.7.4-.9l.6-.6c.2.1.4.4.3.7l-.2.8c-.2.7 0 1.4.5 1.9s1.2.7 1.9.5l.8-.2c.3-.1.5.1.6.1.1.1.2.3.1.6l-.2.8c-.2.7 0 1.4.5 1.9s1.2.7 1.9.5l.8-.2c.3-.1.5.1.6.1.1.1.2.3.1.6l-.1.9c-.2.7 0 1.4.5 1.9s1.2.7 1.9.5l.8-.2c.3-.1.5.1.6.1.1.1.2.3.1.6l-.2.8c-.2.7 0 1.4.5 1.9s1.2.7 1.9.5l.8-.2c.3-.1.5.1.6.1.1.1.2.3.1.6l-.2.8c-.2.7 0 1.4.5 1.9s1.2.7 1.9.5l.8-.2c.2-.1.3 0 .4.1a1.37 1.37 0 0 1 .3.4v.3l-.5.5c-.1.5-.7.5-1.1.4zm-15-24.2c.1-.5.5-.9 1-1.1 1.5-.6 3-.9 4.5-.9 2.4 0 4.6.8 6.1 2.4l9.4 9.4c2.6 2.6 3.1 6.6 1.5 10.6-.2.5-.6.9-1.1 1-.2 0-.5.1-.8-.2l-.1-.1c-.1-.2-.2-.3-.4-.5l-20.1-20.1c-.1-.2-.1-.4 0-.5zm-2.6 1.5a1.07 1.07 0 0 1 1.4-.1c.1.1.2.3.3.4l20.2 20.2c.2.4.1.8-.2 1.1l-.8.8a.45.45 0 0 0 0-.5v-.6c-.1-.5-.5-1-.9-1.3-.5-.3-1-.3-1.5-.2l-.8.2c-.3.1-.5-.1-.6-.1-.1-.1-.2-.3-.1-.6l.2-.8c.2-.7 0-1.4-.5-1.9s-1.2-.7-1.9-.5l-.8.2c-.3.1-.5-.1-.6-.1-.1-.1-.2-.3-.1-.6l.2-.8c.2-.7 0-1.4-.5-1.9s-1.2-.7-1.9-.5l-.8.2c-.3.1-.5-.1-.6-.1-.1-.1-.2-.3-.1-.6l.2-.8c.2-.7 0-1.4-.5-1.9s-1.2-.7-1.9-.5l-.8.2c-.3.1-.5-.1-.6-.1-.1-.1-.2-.3-.1-.6l.2-.8c.2-.7 0-1.4-.5-1.9s-1.2-.7-1.9-.5l-.8.2c-.3.1-.5-.1-.6-.1-.1-.1-.2-.3-.1-.6l.2-.8a1.96 1.96 0 0 0-1.3-2.4c-.4-.1-.8-.1-1.2 0l-.7.2.8-1.5zm-4 5.9c-.4-.4-.4-1 0-1.4a1.08 1.08 0 0 1 .7-.3 1.08 1.08 0 0 1 .7.3l.8.8c.1.2.2.4.4.5l17.6 17.6c.2.2.4.3.5.4l.8.8c.4.4.4 1 0 1.4s-1 .4-1.4 0l-20.1-20.1zm-2.8 1.7a1.75 1.75 0 0 1 2.5 0l18.7 18.7a1.75 1.75 0 1 1-2.5 2.5l-18.7-18.7a1.85 1.85 0 0 1-.5-1.2c0-.5.2-1 .5-1.3z" class="B"/><path d="M277 23.8c1.1 0 2.3-.2 3.4-.5 2.3-.6 4.3-1.9 5.9-3.6l10.2-11.4c1.9-2 2.6-4.6 2.2-7.3h-1.4c.4 2.3-.2 4.6-1.8 6.3l-10.3 11.5A11.7 11.7 0 0 1 280 22c-5.9 1.7-12.1-1.8-13.8-7.7-1.5-5.4 1.2-11 6.2-13.2h-2.8c-4.2 3-6.2 8.4-4.7 13.6 1.6 5.4 6.6 9.1 12.1 9.1zm-8.3-10.3c1.1 3.8 4.5 6.3 8.3 6.3a9.07 9.07 0 0 0 2.3-.3c1.5-.4 2.9-1.3 4-2.4l10.3-11.6c1.1-1.2 1.5-2.8 1.1-4.4V1h-1.5c.1.2.1.3.2.5.3 1.1 0 2.2-.8 3.1l-10.3 11.5c-.9 1-2.1 1.7-3.3 2-3.8 1.1-7.8-1.2-8.8-5-1-3.7 1-7.5 4.6-8.7l9.6-3.4h-4.3l-5.9 2.1c-4.3 1.4-6.7 6-5.5 10.4z"/><g class="B"><path d="M278.3 8.1c-1-.5-2.1-.7-3.1-.4-1.1.3-1.9 1-2.5 1.9s-.7 2.1-.4 3.1c.3 1.1 1 1.9 1.9 2.5.6.4 1.3.5 2 .5.4 0 .8-.1 1.1-.2 1.1-.3 1.9-1 2.5-1.9.5-1 .7-2.1.4-3.1-.2-1-.9-1.8-1.9-2.4zm.4 4.9c-.4.6-.9 1.1-1.6 1.3s-1.4.1-2.1-.2c-.6-.4-1.1-.9-1.3-1.6s-.1-1.4.2-2.1c.4-.6.9-1.1 1.6-1.3.3-.1.6-.1.8-.1a2.77 2.77 0 0 1 1.3.3c.6.4 1.1.9 1.3 1.6.2.8.1 1.5-.2 2.1zM259 19.7c0-.1-.1-.2-.2-.3s-.1-.1-.2-.1a3.05 3.05 0 0 0-.8-.8 15.22 15.22 0 0 0-4.3-3c-.3-.1-.6-.1-.8.1l-9.2 9.2c-.2.2-.3.5-.1.8.7 1.6 1.7 3.1 3 4.3 2.6 2.6 5.8 4 8.7 4 1.6 0 3.2-.5 4.4-1.4l8 8-2.8 2.8c-.3.3-.3.7 0 1 .1.1.3.2.5.2s.4-.1.5-.2l6.6-6.6c.3-.3.3-.7 0-1s-.7-.3-1 0l-2.8 2.8-8-8c2.2-3 1.6-7.9-1.5-11.8zm-14.1 5.7l8.5-8.5c1.2.6 2.4 1.5 3.5 2.5l.5.5-9.5 9.5-.5-.5a13.33 13.33 0 0 1-2.5-3.5zm14.1 5.5c-.1 0-.1 0 0 0-2.3 2.3-6.5 1.9-10-.7l9.3-9.3c2.5 3.6 2.9 7.8.7 10z"/><use xlink:href="#I" x="211"/><path d="M317.9 61.6a3.33 3.33 0 0 0 3.3 3.3 3.33 3.33 0 0 0 3.3-3.3c0-1.8-1.5-3.3-3.3-3.3s-3.3 1.5-3.3 3.3zm3.3-1.9c1 0 1.9.8 1.9 1.9s-.8 1.9-1.9 1.9c-1 0-1.9-.8-1.9-1.9s.9-1.9 1.9-1.9z"/><use xlink:href="#J" x="211"/><path d="M306.7 66.6c-.2.4-.3.8-.3 1.3a3.12 3.12 0 0 0 3.1 3.1c.2 0 .4 0 .7-.1h.1l18.5-4.8c.5.9 1.4 1.5 2.5 1.5.2 0 .5 0 .7-.1.7-.2 1.3-.6 1.7-1.3.4-.6.5-1.4.3-2.1-2.2-8.7-8.5-16.1-16.8-19.7a2.8 2.8 0 0 0-2.2 0c-.7.3-1.3.8-1.6 1.5-.5 1.2-.1 2.6.8 3.3l-7.5 17.4c0-.1 0-.1 0 0zm8.1-20.3c.2-.3.4-.6.8-.7.2-.1.3-.1.5-.1s.4 0 .6.1c7.9 3.5 13.8 10.5 16 18.8.1.4 0 .7-.2 1.1-.2.3-.5.6-.9.6-.7.2-1.5-.3-1.7-1-.2-.9-.5-1.8-.9-2.7-2.1-5.4-5.9-9.9-10.9-12.8-.3-.2-.7-.4-1-.6-.1 0-.2-.1-.2-.1-.4-.2-.9-.4-1.3-.6-.3-.2-.6-.4-.7-.8a1.06 1.06 0 0 1-.1-1.2zM308 67.1V67l7.5-17.2c.1 0 .2.1.3.1.2.1.4.2.5.3l.6.3c.2.1.3.2.5.3s.4.3.6.4.3.2.5.3.4.3.6.4.3.2.5.3c.2.2.4.3.6.5.1.1.3.2.4.3.2.2.4.4.6.5a1.37 1.37 0 0 0 .4.3l1 1a16.35 16.35 0 0 1 1.7 2c.1.1.1.2.2.3.2.3.4.5.5.8.1.1.2.3.3.4.1.2.3.5.4.7s.2.3.3.5.3.4.4.7c.1.2.2.3.3.5a4.87 4.87 0 0 1 .3.7c.1.2.2.3.2.5.1.2.2.5.3.7s.1.4.2.6.2.5.2.7c.1.2.1.4.2.6 0 .1.1.2.1.3L310 69.4h-.1c-1.1.3-2.1-.6-2.1-1.6 0-.2.1-.5.2-.7zm-8.5-52.7s0 .1 0 0c0 .1 0 .1 0 0l.6.7c.2.3.5.5.7.8-.3.4-.4.9-.4 1.3a2.34 2.34 0 0 0 .7 1.7l18.2 18.2c.4.4 1 .7 1.7.7.5 0 .9-.2 1.3-.4.2.2.5.4.7.7.3.3.7.6.9.8l.2.2h.1c.2.1.4.2.6.2h.1c.6 0 .9-.5.9-.6.5-.8.8-1.6.7-2.3 0-.4-.1-.7-.2-1.1 0-.1 0-.4.1-.7.2-.9.7-1.7 1.2-1.9.3-.2.6-.3.9-.5.7-.4 1.2-1.3 1.3-2.3s-.1-1.8-.6-2.4a2.34 2.34 0 0 0-.7-.7c-.5-.5-.6-1.9-.3-2.4.2-.3.4-.5.5-.8.4-.6.4-1.5.1-2.4s-1-1.7-1.6-1.9l-.9-.3c-.7-.2-1.4-1.3-1.3-2 0-.3.1-.6.1-.9.1-.7-.3-1.6-1-2.3s-1.6-1-2.2-.9c-.3 0-.6.1-.9.1-.7.1-1.8-.6-2-1.3l-.3-.9c-.2-.7-1-1.3-1.9-1.6s-1.8-.2-2.4.2c-.3.2-.5.4-.8.5-.6.4-1.9.3-2.5-.2-.2-.2-.5-.5-.7-.6-.5-.5-1.4-.7-2.4-.5-1.1.2-1.9.7-2.3 1.4-.2.3-.3.6-.5.9-.3.5-1.2 1.1-2.1 1.3-.3.1-.5.1-.6 0-.3-.1-.7-.1-1.1-.1-.7-.1-1.3.2-1.8.5l-.1.1c-.1 0-.1.1-.2.1-.2.4-.2 1 .2 1.6zm20.8 21.8l-18.2-18.3c-.3-.3-.3-.8-.1-1.2.7.1 1.5-.4 2.2-.8.2-.1.4-.3.6-.4l.2-.1a11.94 11.94 0 0 1 1.6-.8c1.6-.6 3.2-1 4.8-.9.5 0 1.1 0 1.6.1.4.1.7.1 1.1.2 1.4.3 2.7.9 4 1.7.2.1.4.2.5.3a3.04 3.04 0 0 0 .7.5c.1.1.3.2.4.3.3.2.6.5.8.8 3.3 3.3 4.6 7.9 3.8 12.3-.1.6-.3 1.1-.5 1.6-.2.6-.5 1.1-.8 1.6a.76.76 0 0 0-.2.4c-.2.4-.6.7-.9 1-.4.4-.8.7-.8 1.2 0 .1 0 .3.1.5-.2.3-.6.2-.9 0zm-18.8-22.8c.3 0 .7.1 1 .1s.7 0 1.1-.1c1.1-.3 2.5-1 3-2 .1-.3.3-.6.5-.9s.7-.6 1.3-.7 1 0 1.2.2.5.4.7.6c1 .9 3.1 1.1 4.2.3.2-.2.5-.3.7-.5.2-.1.6-.2 1.2 0 .5.2.9.5 1 .8l.3.9c.5 1.3 2.2 2.4 3.6 2.2.3 0 .6-.1.9-.1.2 0 .7.1 1.1.6.4.4.6.9.6 1.1 0 .3-.1.6-.1.9-.2 1.4 1 3.1 2.3 3.5l.9.3c.3.1.6.5.8 1s.1 1 0 1.2c-.2.3-.3.5-.5.8-.7 1.1-.5 3.2.4 4.2.2.2.4.4.6.7.2.2.3.6.2 1.2s-.3 1.1-.7 1.3c-.3.2-.5.3-.8.5-1 .5-1.6 1.8-1.9 2.8-.1.5-.2 1-.1 1.4.1.3.1.6.1 1 0 .2-.1.6-.4 1.2-.3-.2-.6-.5-.9-.8-.3-.2-.5-.5-.7-.7 1.3-1.9 2.2-3.9 2.5-6.1.3-1.2.4-2.3.4-3.5 0-.6-.1-1.2-.2-1.8-.3-1.7-.9-3.3-1.8-4.9-.2-.4-.5-.9-.9-1.3-.5-.7-1.1-1.4-1.8-2l-.2-.2c-.3-.3-.6-.5-.9-.8-.2-.1-.3-.3-.5-.4-.2-.2-.5-.4-.7-.6s-.5-.3-.7-.5c-.2-.1-.4-.3-.6-.4-1.2-.6-2.4-1.1-3.7-1.4-4.2-1-8.8-.3-12.5 2.3-.2-.3-.5-.5-.7-.8l-.5-.6c.7.1 1 0 1.2 0zm-65 84.1l8.2 8.2c.7.7 1.6 1.1 2.6 1.1s1.9-.4 2.6-1.1l6.6-6.6c1.3-.2 2.4-.8 3.4-1.8 2.5-2.5 2.5-6.5 0-9a5.79 5.79 0 0 0-2.5-1.5c-.8-.3-1.7-1-1.9-1.8-.3-1-.8-1.9-1.6-2.6-1.2-1.2-2.8-1.9-4.5-1.9s-3.3.7-4.5 1.9c-.9.9-1.5 2.1-1.8 3.4l-6.6 6.6a3.45 3.45 0 0 0 0 5.1zm1-4.1l6.8-6.8a.76.76 0 0 0 .2-.4c.1-1.1.6-2 1.4-2.8.9-.9 2.2-1.4 3.5-1.4s2.6.5 3.5 1.4c.6.6 1 1.2 1.2 2 .3 1.4 1.7 2.4 2.8 2.8.7.2 1.4.6 1.9 1.2 1.9 1.9 1.9 5 0 7-.8.8-1.7 1.2-2.8 1.4-.2 0-.3.1-.4.2l-6.8 6.8c-.8.8-2.3.8-3.1 0l-8.2-8.2c-.4-.4-.6-1-.6-1.6-.1-.7.1-1.2.6-1.6zM367.8 198l8.2-8.2c1.4-1.4 1.4-3.7 0-5.1l-6.6-6.6c-.2-1.3-.8-2.4-1.8-3.4-1.2-1.2-2.8-1.9-4.5-1.9s-3.3.7-4.5 1.9c-.7.7-1.2 1.5-1.5 2.5-.3.8-1 1.7-1.8 1.9-1 .3-1.9.8-2.6 1.6-2.5 2.5-2.5 6.5 0 9 .9.9 2.1 1.5 3.4 1.8l6.6 6.6c.7.7 1.6 1.1 2.6 1.1s1.8-.5 2.5-1.2zm-10.9-7.7c-.1-.1-.2-.2-.4-.2-1.1-.1-2-.6-2.8-1.4-.9-.9-1.4-2.2-1.4-3.5s.5-2.6 1.4-3.5c.6-.6 1.2-1 2-1.2 1.4-.3 2.4-1.7 2.8-2.8.2-.7.6-1.4 1.2-1.9.9-.9 2.2-1.4 3.5-1.4s2.6.5 3.5 1.4c.8.8 1.2 1.7 1.4 2.8 0 .2.1.3.2.4l6.8 6.8c.4.4.6 1 .6 1.6s-.2 1.1-.6 1.6l-8.2 8.2c-.8.8-2.3.8-3.1 0l-6.9-6.9z"/></g><path d="M323.3 184.7c5 0 9-4.1 9-9a.68.68 0 1 0-1.4 0 7.6 7.6 0 0 1-7.6 7.6c-.4 0-.7.3-.7.7s.3.7.7.7z"/><use xlink:href="#K" x="211" class="B"/><use xlink:href="#L" x="211"/><path d="M212.7 105.5c-.1-.2-.4-.4-.7-.4v1.5c.1-.1.3-.1.4-.2.3-.1.5-.6.3-.9z"/><use xlink:href="#M" x="211"/><path d="M343.9 177.7c3.6 0 10.1-3.8 15.8-8.5 7.2-6 13.2-13.5 10.8-16.3s-10.8 1.7-18 7.7c-3.8 3.1-7 6.5-9 9.4-2.3 3.2-2.9 5.6-1.8 6.9.5.6 1.3.8 2.2.8zm.6-6.6c.7.4 1.5.8 2.3 1s1.7.4 2.5.4c1.2 0 2.3-.3 3.3-.8.3-.2.5-.6.3-1-.2-.3-.6-.5-1-.3-1.2.7-3 .8-4.7.3-.7-.2-1.3-.5-1.9-.8.9-1.2 2-2.5 3.3-3.8.7.6 1.5 1 2.4 1.4 1 .4 2 .6 3 .6s1.9-.2 2.7-.6c.4-.2.5-.6.4-.9-.2-.4-.6-.5-.9-.4-1.3.6-3.1.6-4.7 0-.7-.3-1.3-.6-1.9-1 1.2-1.1 2.4-2.3 3.8-3.4.7.5 1.5.9 2.4 1.2s1.8.4 2.6.4c1.1 0 2.2-.2 3.1-.7.3-.2.5-.6.3-1-.2-.3-.6-.5-1-.3-1.3.7-3 .7-4.7.2a8.86 8.86 0 0 1-1.7-.8c1.7-1.4 3.3-2.5 4.9-3.5.8.4 1.7.8 2.6.9.6.1 1.2.2 1.7.2 1.5 0 2.9-.4 4-1.1a.78.78 0 0 0 .2-1 .78.78 0 0 0-1-.2c-1.2.8-2.9 1.1-4.6.7-.5-.1-1-.3-1.4-.4 3.3-2 6-2.9 7.5-2.9.5 0 .9.1 1.1.4 1.1 1.3-2.4 7.4-10.7 14.3s-14.9 9.2-16 7.9c-.3-.6-.1-2.2 1.8-5zm-58.3-56.9h-.3c-.1 0-.1.1-.2.2l-5.5 6.7s0 .1-.1.1c0 0 0 .1-.1.1v.2c0 .1 0 .2.1.3 0 0 0 .1.1.1 0 0 0 .1.1.1l14.1 16.3.1.1s.1 0 .1.1h.6s.1 0 .1-.1l.1-.1 14.1-16.3s0-.1.1-.1c0 0 0-.1.1-.1 0-.1.1-.2.1-.3v-.2s0-.1-.1-.1c0 0 0-.1-.1-.1l-5.5-6.7c-.1-.1-.1-.1-.2-.1H295l-8.8-.1zm-.1 2l2.5 4.7h-6.4l3.9-4.7zm8.7 19.3l-4.2-13.2h8.4l-4.2 13.2zm-3.6-14.6l3.7-4.8 3.6 4.8h-7.3zm-9 1.4h6.9l4 12.5-10.9-12.5zm14.3 12.5l3.9-12.5h7l-10.9 12.5zm11-13.9H301l2.5-4.7 4 4.7zm-5.2-5.3l-2.5 4.7-3.5-4.7h6zm-8.9 0l-3.6 4.7-2.5-4.7h6.1zM360 25.3l-.8-8.6v-.2c0-.1-.1-.1-.1-.2-.1-.1-.1-.1-.2-.1h-.2L337 14.5h-.3s-.1 0-.1.1c0 0 0 .1-.1.1v.4l1.5 21.6v.1c0 .1.1.2.1.2.1 0 .1.1.2.1h.2l8.6.8h.3s.1 0 .1-.1c0 0 .1 0 .1-.1l12.2-12.2s.1-.1.1-.2v-.1c.1.3.1.2.1.1zm-7.6 5.3l-5.9-.8 5.1-5.1.8 5.9zm-13.3 4.6l-1.2-16.6 6.1 11.7-4.9 4.9zm5.9-6l-6.4-12.3 12.3 6.4-5.9 5.9zm12.9-10.9l.6 6.1-5.1-1.6 4.5-4.5zm-1-1l-4.9 4.9-11.7-6 16.6 1.1zM340 36.2l4.5-4.5 1.5 5.1-6-.6zm7.4 0l-1.5-5.1 5.8.8-4.3 4.3zm6.3-6.2l-.8-5.8 5 1.6-4.2 4.2z" class="B"/><use xlink:href="#N" x="211"/><path d="M214.3 175.8c-.3-.3-.7-.3-1 0l-1.1 1.2-.2-.2v2.3l.2-.2 1.2 1.2c.1.1.3.2.5.2s.4-.1.5-.2c.3-.3.3-.7 0-1l-1.2-1.1 1.2-1.2c.2-.3.2-.7-.1-1z"/><circle cx="222.8" cy="163.8" r="1.2"/><circle cx="222.8" cy="167.9" r="1.2"/><path d="M226.2 162.8c-.5.5-.5 1.2 0 1.7s1.2.5 1.7 0 .5-1.2 0-1.7c-.5-.4-1.2-.4-1.7 0z"/><circle cx="227.1" cy="167.8" r="1.2"/><path d="M348 48.3c-.3-.3-.7-.3-1 0l-1.3 1.3-1.3-1.3c-.3-.3-.7-.3-1 0s-.3.7 0 1l1.3 1.3-1.3 1.3c-.3.3-.3.7 0 1 .1.1.3.2.5.2s.4-.1.5-.2l1.3-1.3L347 53c.1.1.3.2.5.2s.4-.1.5-.2c.3-.3.3-.7 0-1l-1.3-1.3 1.3-1.3c.3-.3.3-.8 0-1.1z"/><g class="B"><use xlink:href="#O" x="211"/><use xlink:href="#Q" x="211"/><use xlink:href="#R" x="211"/></g><use xlink:href="#P" x="146.1" y="131.6"/><path d="M249.5 10.5c1.2 0 2.4-.5 3.3-1.4l7.6-7.6c.2-.2.3-.3.4-.5h-1.9l-7.1 7.1a3.32 3.32 0 0 1-4.7 0L240 1h-2l8.1 8.1c1 .9 2.2 1.4 3.4 1.4zm-2.3-7.1c2 0 3.8-.8 5.2-2.1.1-.1.1-.2.2-.2h-2.2c-1 .6-2.1 1-3.2 1-1.1-.1-2.2-.5-3.2-1.1h-2.2l.2.2c1.4 1.4 3.3 2.2 5.2 2.2zm1.2-2.4h-2.2c.4.1.7.1 1.1.1.3 0 .7 0 1.1-.1z"/><g class="B"><path d="M254 78.5c4.2 0 7.9-1.8 10.6-4.7 0 0 .1 0 .1-.1 2.3-2.5 3.7-5.9 3.7-9.5a13.91 13.91 0 0 0-3.7-9.5c-.1-.1-.1-.2-.2-.2-2.6-2.8-6.3-4.5-10.4-4.5-7.6 0-13.8 6-14.3 13.5-.2.1-.3.3-.3.6 0 .2.1.4.3.6 0 7.5 6.4 13.8 14.2 13.8zm-10.1-6.3c-1.7-2.1-2.7-4.7-2.8-7.6h6.9a10.39 10.39 0 0 1-4.1 7.6zm5.5-7.6h3.9V77c-3.3-.2-6.3-1.6-8.5-3.8 2.8-2 4.5-5.2 4.6-8.6zm5.3 12.4V64.6h3.3c.1 3.6 2 6.9 4.9 8.9-2.2 2.1-5 3.4-8.2 3.5zm9.2-4.6c-2.7-1.7-4.3-4.7-4.5-7.9h7.5c-.1 3.1-1.2 5.8-3 7.9zm-4.4-9.2c.3-3 1.9-5.6 4.4-7.3 1.7 2 2.8 4.5 3 7.3h-7.4zm-1.5 0h-3.3V51.3c3.2.2 6 1.5 8.2 3.5-2.8 2-4.6 5-4.9 8.4zm-4.7-11.9v11.9h-3.9c-.3-3.2-1.9-6.2-4.5-8.1 2.1-2.2 5.1-3.6 8.4-3.8zm-9.4 4.8c2.3 1.7 3.8 4.2 4.1 7h-6.8c.1-2.6 1.1-5 2.7-7z"/><use xlink:href="#S" x="211"/><path d="M232 112.3c-.3-.3-.7-.3-1 0s-.3.7 0 1l1.6 1.7c-.1.2-.2.4-.2.5-.1.2-.1.4-.1.7 0 .8.4 1.7 1.1 2.5.8.9 1.7 1.4 2.7 1.5h.7c1.7 4.8 5.1 9.9 10 15 .1.1.3.2.5.2s.4-.1.5-.2l11.6-11.1c.3-.3.3-.7 0-1-5.1-5.3-10-9-14.5-10.9v-.5c0-1-.5-1.9-1.4-2.8-.8-.8-1.6-1.2-2.4-1.2-.2 0-.5 0-.7.1-.3 0-.5.1-.7.2l-1.6-1.6c-.3-.3-.7-.3-1 0s-.3.7 0 1l1.5 1.6c-.5.6-.9 1.4-1.3 2.5-.1.3-.2.6-.2.8-.2.1-.5.1-.9.2-1.2.4-2.1.9-2.8 1.4l-1.4-1.6zm26 11.2l-10.6 10.1c-4.6-4.9-7.7-9.7-9.3-14.2l6.3-6c4.3 1.9 8.8 5.2 13.6 10.1zm-23.7-8.5c.5-.5 1.3-.9 2.4-1.2.5-.1.9-.2 1.2-.3s.5-.3.5-.5c.1-.3.2-.7.3-1.1a6.98 6.98 0 0 1 1.2-2.3l.1-.1s.1 0 .1-.1c0 0 0-.1.1-.1.1-.1.2-.1.4-.1h.5c.5 0 1 .3 1.5.8.6.6.9 1.2 1 1.8 0 .2 0 .4-.1.6l-6.5 6.2c-.2.1-.4.1-.7.1-.6 0-1.2-.4-1.8-1-.5-.6-.8-1.1-.8-1.6v-.4c.1 0 .2-.3.6-.7z"/><use xlink:href="#T" x="211"/><path d="M269.7 149.3c1 1 2.5 1.5 4 1.5 2.2 0 4.8-1.1 6.8-3.1 3.4-3.4 4.1-8.2 1.5-10.8l-7.6-7.6a8.01 8.01 0 0 0-5.8-2.4 8.25 8.25 0 0 0-5.8 2.4l-10.4 10.4c-.3.3-.3.7 0 1l8.8 8.8c.1.1.3.2.5.2s.4-.1.5-.2l3.9-3.9 3.6 3.7zm9.8-2.5c-2.8 2.8-6.8 3.5-8.8 1.5s-1.3-5.9 1.5-8.8c1.7-1.7 3.9-2.7 5.8-2.7 1.2 0 2.2.4 3 1.1 2 2.1 1.3 6-1.5 8.9zm-17.8 1.3l-7.8-7.8 6.2-6.2.6.6c.1.1.3.2.5.2s.4-.1.5-.2c.3-.3.3-.7 0-1l-.6-.6 2.7-2.7c1.3-1.3 3-2 4.8-2s3.5.7 4.8 2l5 5.1c-2.3-.1-5.1.9-7.2 3-.2.2-.4.4-.5.6l-1.8 1.8-.9-.9c-.3-.3-.7-.3-1 0s-.3.7 0 1l.9.9-6.2 6.2zm5.4-3.4l1.3-1.3c-.2.8-.3 1.6-.2 2.4l-1.1-1.1z"/></g><use xlink:href="#U" x="211"/><path d="M378.6 133.6c3.4-3.4 4.1-8.2 1.5-10.8l-7.6-7.6c-1.6-1.6-3.6-2.4-5.8-2.4a8.25 8.25 0 0 0-5.8 2.4l-10.4 10.4c-.1.1-.2.3-.2.5s.1.4.2.5l8.8 8.8c.1.1.3.2.5.2s.4-.1.5-.2l3.9-3.9 3.6 3.6c1 1 2.5 1.5 4 1.5 2.3 0 4.8-1 6.8-3zm-18.7.3L352 126l6.2-6.2.6.6c.1.1.3.2.5.2s.4-.1.5-.2c.3-.3.3-.7 0-1l-.6-.6 2.7-2.7c1.3-1.3 3-2 4.8-2s3.5.7 4.8 2l5 5.1c-2.3-.1-5.1.9-7.2 3-.2.2-.4.4-.5.6l-1.8 1.8-.9-.9c-.3-.3-.7-.3-1 0s-.3.7 0 1l.9.9-6.1 6.3zm5.4-3.4l1.3-1.3c-.2.8-.3 1.6-.2 2.4l-1.1-1.1zm3.6 3.6c-2-2-1.3-5.9 1.5-8.8 1.7-1.7 3.9-2.7 5.7-2.7 1.2 0 2.2.4 3 1.1 2 2 1.3 5.9-1.5 8.8s-6.7 3.6-8.7 1.6zM241.7 40.9s.1 0 .1-.1l2.7-2.7c.3-.3.3-.7 0-1l-3.1-3.1c-.3-.3-.7-.3-1 0l-2.7 2.7s0 .1-.1.1c-2-.5-4.2 0-5.7 1.5l-11.2 11.2a2.46 2.46 0 0 0-2.7.5 2.34 2.34 0 0 0-.7 1.7 2.41 2.41 0 0 0 .7 1.7l7 7a2.34 2.34 0 0 0 1.7.7c.7 0 1.3-.3 1.7-.7a2.46 2.46 0 0 0 .5-2.7l11.2-11.2c1.7-1.4 2.2-3.6 1.6-5.6zm-.8-5.4l2.2 2.2-1.7 1.7-2.2-2.2 1.7-1.7zm-8 3.8c1.8-1.8 4.6-1.8 6.4 0 1.7 1.7 1.7 4.3.3 6l-9.6-3.1 2.9-2.9zm-5.4 20.2a1.09 1.09 0 0 1-1.5 0l-7-7a1.08 1.08 0 0 1-.3-.7c0-.3.1-.5.3-.7a1.08 1.08 0 0 1 .7-.3c.1 0 .3 0 .4.1 0 .1.1.1.1.2.1.1.2.2.4.2l6.8 6.8a.76.76 0 0 0 .2.4.35.35 0 0 0 .2.1c.1.2 0 .6-.3.9zm.7-2.8l-6.4-6.4 1.8-1.8 9.6 3.1-5 5.1zm6.2-6.2l-9.6-3.1 4-4 9.6 3.1-4 4zm-19.2-5.1a.68.68 0 1 0-1.4 0 .47.47 0 1 1-1 0v-8.1h9.5c.2 0 .4-.1.5-.2.1-.2.2-.4.2-.6-.6-5.3-4.9-9.3-10.1-9.6V26a.68.68 0 0 0-.7-.7v3c1.9 0 3.5 3.3 3.9 7.6H212v11c.3.3.8.5 1.2.5 1.1-.1 2-1 2-2zm0-16.7c3.1 1.1 5.5 3.7 6.2 7.1h-4c-.3-3-1.1-5.5-2.2-7.1zm112.2 116.1c.2 0 .4-.1.5-.2.1-.2.2-.4.2-.6-.7-6.2-5.9-11-12.1-11.3v-1.2c0-.4-.3-.7-.7-.7s-.7.3-.7.7v1.2c-6.2.3-11.3 5.1-12.1 11.3 0 .2 0 .4.2.6.1.2.3.2.5.2h11.5c-.1.1-.2.3-.2.4v9.4a2.22 2.22 0 0 0 2.2 2.2 2.22 2.22 0 0 0 2.2-2.2c0-.4-.3-.7-.7-.7s-.7.3-.7.7-.3.8-.8.8c-.4 0-.8-.3-.8-.8v-9.4c0-.2-.1-.3-.2-.4h11.7zm-.8-1.4h-5.1c-.3-3.8-1.3-6.9-2.8-8.8 4 1.2 7.1 4.6 7.9 8.8zm-14.6-8.8c-1.5 1.9-2.5 5-2.8 8.8h-5.1c.8-4.2 3.9-7.6 7.9-8.8zm-1.4 8.8c.4-5.2 2.5-9.3 4.8-9.3s4.4 4.1 4.8 9.3h-9.6z" class="B"/><path d="M316.4 5.8c.2 0 .4-.1.5-.2l4.6-4.6h-2l-3.1 3.1-3.1-3.1h-2l4.6 4.6c.1.1.3.2.5.2zM212 147.3l3.6 3.6-3.6 3.7v2l5.1-5.1c.3-.3.3-.7 0-1l-3.1-3.2 2.7-2.7c.8-.8.8-2.2 0-3a2.18 2.18 0 0 0-3 0l-1.7 1.7v2l2.7-2.7c.3-.3.7-.3 1 0s.3.7 0 1l-2.7 2.7-1-1v2zM341.5 7.7c1.2 0 2.4-.5 3.3-1.4l5.3-5.3h-3.8c.5.2.9.4 1.3.6l-3.7 3.7a3.32 3.32 0 0 1-4.7 0L334.8 1h-2l5.3 5.3c1 .9 2.2 1.4 3.4 1.4z"/></g></g></g><defs><path id="A" d="M80.3 36.1c-.3-.3-.7-.3-1 0s-.3.7 0 1l9.6 9.6c.1.1.3.2.5.2s.4-.1.5-.2c.3-.3.3-.7 0-1l-9.6-9.6z"/><path id="B" d="M75.7 59c1.7-.9 4.4.9 5.8 3.7s1 5.4 0 6.5c-.3.3-.3.7 0 1 .1.1.3.2.5.2s.4-.1.5-.2c1.4-1.4 2-4.7.3-8.1-1.8-3.6-5.3-5.5-7.7-4.3-.3.2-.5.6-.3.9.2.4.6.5.9.3z"/><path id="C" d="M65.8 56c-1.8.4-3.3 1.7-3.9 3.4-.1.2 0 .5.1.7 1 1.1 2.4 1.8 3.9 1.8.3 0 .7 0 1-.1.7-.1 1.3-.4 2-.9.1.1.1.3.2.4a.55.55 0 0 0 .5.3c-.3.2-.6.4-.9.5-1.7.5-3.1 1.6-3.8 3.1-1 1.7-.9 3.8.2 5.8 1 2 2.8 3.7 5 4.8 1.7.9 3.5 1.3 5.2 1.3 2.9 0 5.4-1.2 6.5-3.5.1-.2.2-.4.2-.6.2-.1.4-.2.6-.2 3.5-1.8 4.5-7 2.2-11.7s-7.1-7-10.7-5.3c-1.4.7-2.5 2-3 3.7v.1c-.1.4-.4.8-.6 1.2 0-.1 0-.2-.1-.3-.3-.5-.6-1.1-.7-1.7-.2-.6-.2-1.2-.2-1.8.1-1.1.5-2 1.2-2.7.3-.3.3-.7 0-1s-.7-.3-1 0c-.7.7-1.2 1.7-1.4 2.8-1-.2-1.8-.3-2.5-.1zm5.3 6.1c.5-.5 1-1.2 1.2-2V60c.4-1.4 1.2-2.4 2.4-3 2.8-1.4 6.8.7 8.8 4.6 2 4 1.3 8.4-1.5 9.8-.2.1-.4.2-.7.3-.2.1-.4.3-.5.5-.1.3-.2.5-.3.7-1.4 2.8-5.8 3.5-9.8 1.5-2-1-3.5-2.5-4.4-4.2-.8-1.6-.9-3.3-.3-4.6.6-1.1 1.6-2 3.1-2.4 0 0 .1 0 .1-.1.8 0 1.4-.4 1.9-1zm-3.2-4.6l.3 1.7c0 .1.1.3.1.4-.1 0-.2.1-.3.1-.5.4-1 .6-1.4.7-1.2.2-2.4-.1-3.3-.9.5-1.1 1.5-1.9 2.7-2.1.6-.2 1.3-.1 1.9.1z"/><path id="D" d="M132.5 87.6c2.1-.7 4.5-.2 6 1.4 1.1 1.1 1.7 2.6 1.7 4.1a.68.68 0 1 0 1.4 0c0-1.9-.8-3.7-2.1-5.1-1.9-1.9-4.9-2.6-7.5-1.7-.4.1-.6.5-.4.9.1.3.5.5.9.4z"/><path id="E" d="M85.2 157.7c-.3-.3-.7-.3-1 0-.1.1-.2.3-.2.5s.1.4.2.5.2.3.2.5-.1.4-.2.5c-.3.3-.8.3-1.1 0s-.7-.3-1 0c-.1.1-.2.3-.2.5s.1.4.2.5c.4.4 1 .6 1.5.6.6 0 1.1-.2 1.5-.6s.6-.9.6-1.5c.5 0 1-.2 1.4-.6s.6-1 .6-1.5-.2-1.1-.6-1.5c-.3-.3-.7-.3-1 0-.1.1-.2.3-.2.5s.1.4.2.5c.2.1.2.3.2.5s-.1.4-.2.5c-.1.5-.6.4-.9.1z"/><path id="F" d="M77.1 163c-.3-.3-.7-.3-1 0-.1.1-.2.3-.2.5s.1.4.2.5c.1.2.2.3.2.5s-.1.4-.2.5c-.3.3-.8.3-1.1 0s-.7-.3-1 0c-.1.1-.2.3-.2.5s.1.4.2.5c.2.1.2.3.2.5s-.1.4-.2.5c-.3.3-.8.3-1.1 0s-.7-.3-1 0c-.1.1-.2.3-.2.5s.1.4.2.5c.4.4 1 .6 1.5.6.6 0 1.1-.2 1.5-.6s.6-.9.6-1.5c.5 0 1-.2 1.5-.6.4-.4.6-1 .6-1.5.1-.4-.1-.9-.5-1.4z"/><path id="G" d="M81.8 163.7c-.1.1-.2.3-.2.5s.1.4.2.5.2.3.2.5-.1.4-.2.5-.3.2-.5.2-.4-.1-.5-.2c-.3-.3-.7-.3-1 0-.1.1-.2.3-.2.5s.1.4.2.5.2.3.2.5-.1.4-.2.5c-.3.3-.8.3-1.1 0s-.7-.3-1 0c-.1.1-.2.3-.2.5s.1.4.2.5c.4.4 1 .6 1.5.6.6 0 1.1-.2 1.5-.6s.6-.9.6-1.4c.5 0 1.1-.2 1.5-.6s.6-1 .6-1.5c0-.6-.2-1.1-.6-1.5-.3-.3-.7-.3-1 0z"/><path id="H" d="M106.7 93.9a.61.61 0 0 0 0-.8.61.61 0 0 0-.8 0 .61.61 0 0 0 0 .8.61.61 0 0 0 .8 0z"/><path id="I" d="M106 57.5c1.4 0 2.5-1.1 2.5-2.5s-1.1-2.5-2.5-2.5-2.5 1.1-2.5 2.5 1.1 2.5 2.5 2.5zm0-3.5a1.11 1.11 0 0 1 1.1 1.1 1.11 1.11 0 0 1-1.1 1.1 1.11 1.11 0 0 1-1.1-1.1c0-.7.5-1.1 1.1-1.1z"/><path id="J" d="M102.6 66.7c1.4 0 2.5-1.1 2.5-2.5s-1.1-2.5-2.5-2.5-2.5 1.1-2.5 2.5 1.1 2.5 2.5 2.5zm0-3.6a1.11 1.11 0 0 1 1.1 1.1 1.11 1.11 0 0 1-1.1 1.1 1.11 1.11 0 0 1-1.1-1.1 1.11 1.11 0 0 1 1.1-1.1z"/><path id="K" d="M93.4 183.1c0 .1 0 .1 0 0l1.2 1.5c2.1 2.1 4.8 3.2 7.7 3.2 2 0 3.9-.6 5.6-1.6 1.4.6 2.8.9 4.3.9 6.3 0 11.4-5.1 11.4-11.4 0-6.1-4.8-11-10.7-11.4v-1.4c.5.3 1.1.4 1.7.4.3 0 .7 0 1-.1 1.5-.4 2.6-1.7 2.7-3.3 0-.2 0-.3-.1-.5-.9-1.2-2.5-1.8-4-1.4s-2.6 1.7-2.7 3.3v2.9c-5.6.3-10.1 4.7-10.7 10.3l-5.3-5.3c-.3-.3-.7-.3-1 0-2.1 2.1-3.2 4.8-3.2 7.7.2 2.3.9 4.4 2.1 6.2zm2.3.5c-.3-.3-.5-.5-.7-.8l6.1-5.2.6 8.7c-2.3-.1-4.4-1.1-6-2.7zm7.3 2.8l-.6-8.4 6.1 6.1c-1.5 1.4-3.4 2.1-5.5 2.3zm11.7-27c.8-.2 1.7 0 2.3.7-.2.8-.8 1.5-1.6 1.8-.8.2-1.7 0-2.3-.7.1-.9.8-1.6 1.6-1.8zm-2.4 6.2c5.5 0 10 4.5 10 10s-4.5 10-10 10c-1 0-2-.2-2.9-.4.2-.2.5-.4.7-.6.3-.3.3-.7 0-1l-7.8-7.8v-.2c0-5.5 4.5-10 10-10zm-17.1 5.1l4.2 4.2h-6.3c.3-1.5 1-2.9 2.1-4.2zm-2.3 5.7h7.4l-6.1 5.2c-.8-1.4-1.2-3-1.2-4.7-.1-.2-.1-.3-.1-.5z"/><path id="L" d="M17.6 94.6c2.3-3.2 2.9-5.6 1.8-6.9-2.4-2.8-10.8 1.7-18 7.7-.1.1-.3.2-.4.3v1.9c.4-.4.8-.7 1.3-1.1.7.5 1.5.9 2.4 1.2s1.8.4 2.6.4c1.1 0 2.2-.2 3.1-.7.3-.2.5-.6.3-1-.2-.3-.6-.5-1-.3-1.3.7-3 .7-4.7.2-.6-.2-1.2-.5-1.7-.8l5-3.5c.8.5 1.7.8 2.6 1 .6.1 1.2.2 1.7.2 1.5 0 2.9-.4 4-1.1a.78.78 0 0 0 .2-1 .78.78 0 0 0-1-.2c-1.2.8-2.9 1.1-4.6.7-.5-.1-1-.3-1.4-.4 3.3-2 6-2.9 7.5-2.9.5 0 .9.1 1.1.4.4.5.2 2.2-1.9 5.2-2 2.8-5.1 6.1-8.8 9.1-2.2 1.9-4.5 3.5-6.6 4.8v1.6c2.4-1.4 5-3.3 7.5-5.4 3.7-3.1 6.9-6.5 9-9.4z"/><path id="M" d="M5.7 102.3c.4-.2.5-.6.4-.9-.2-.4-.6-.5-.9-.4-1.1.5-2.6.6-4.1.2v1.5c.6.2 1.3.2 1.9.2.9-.1 1.8-.3 2.7-.6z"/><path id="N" d="M8.1 184c1.8-1.8 2.7-4.3 2.4-6.8l2.6-2.6c2.5.3 5-.6 6.8-2.4 3.2-3.2 3.2-8.5 0-11.7-1.6-1.6-3.6-2.4-5.8-2.4a8.25 8.25 0 0 0-5.8 2.4l-5.4 5.4-1.3-1.5c-.2-.2-.4-.3-.6-.2v1.7l.9 1-.9.9v2l8.2-8.2c1.3-1.3 3-2 4.8-2s3.5.7 4.8 2a6.82 6.82 0 0 1 0 9.7c-1.6 1.6-3.8 2.3-5.9 1.9-.2 0-.5 0-.6.2l-3.1 3.1c-.2.2-.2.4-.2.6.4 2.2-.4 4.4-1.9 5.9-1.3 1.3-3 2-4.8 2-.4 0-.9 0-1.3-.1v1.4c.4.1.9.1 1.3.1 2.2 0 4.3-.8 5.8-2.4z"/><path id="O" d="M149.7 50.1c-.3-.3-.7-.3-1-.1l-1.8 1.5-6-6c-1.7-1.7-4-2.6-6.4-2.6s-4.7.9-6.4 2.6c-3.5 3.5-3.5 9.3 0 12.8 2 2 4.7 2.9 7.5 2.6l2.9 2.9c-.3 2.7.6 5.5 2.6 7.5 1.8 1.8 4.1 2.6 6.4 2.6s4.6-.9 6.4-2.6c1.7-1.7 2.6-4 2.6-6.4s-.9-4.7-2.6-6.4l-6-6 1.7-1.5c.3-.2.3-.6.1-.9zm3.1 9.4c1.4 1.4 2.2 3.4 2.2 5.4s-.8 4-2.2 5.4c-3 3-7.8 3-10.8 0a7.64 7.64 0 0 1-2.1-6.6c0-.2 0-.5-.2-.6l-3.4-3.4c-.1-.1-.3-.2-.5-.2h-.1a7.64 7.64 0 0 1-6.6-2.1c-3-3-3-7.8 0-10.8 1.4-1.4 3.4-2.2 5.4-2.2s4 .8 5.4 2.2l12.9 12.9z"/><path id="P" d="M197.3 16c.1 0 .1.1.1.1h.4c.1 0 .2 0 .3-.1 0 0 .1 0 .1-.1 0 0 .1 0 .1-.1v-.1l3.6-5.6a.78.78 0 0 0-.2-1 .78.78 0 0 0-1 .2l-3.1 4.8-3.1-2.9c-.3-.3-.7-.3-1 0s-.3.7 0 1l3.8 3.8z"/><path id="Q" d="M132.9 158.5a12.04 12.04 0 0 0 12-12 12.04 12.04 0 0 0-12-12 12.04 12.04 0 0 0-12 12c-.1 6.6 5.3 12 12 12zm0-22.6c5.9 0 10.6 4.8 10.6 10.6 0 5.9-4.8 10.6-10.6 10.6-5.9 0-10.6-4.8-10.6-10.6s4.7-10.6 10.6-10.6z"/><path id="R" d="M132.9 155.9a9.39 9.39 0 1 0 0-18.8 9.39 9.39 0 1 0 0 18.8zm0-17.3c4.4 0 8 3.6 8 8s-3.6 8-8 8-8-3.6-8-8c0-4.5 3.6-8 8-8z"/><path id="S" d="M122.1 133.6h.3c3.4-.2 6.8-1.6 9.4-4.2s4-5.9 4.2-9.4v-.3c.1-3.8-1.3-7.7-4.2-10.6-5.4-5.4-14-5.6-19.6-.6-.2 0-.5 0-.6.2-.2.2-.2.4-.2.6-5.4 5.6-5.3 14.5.2 20.1 2.8 2.8 6.5 4.2 10.1 4.2h.4zm.7-1.5c-.6-3.1.2-6.4 2.4-8.7l5.3 5.3c-2.2 2-4.9 3.2-7.7 3.4zm8.6-4.4l-5.2-5.2c2.3-1.9 5.4-2.6 8.3-2-.2 2.5-1.3 5.1-3.1 7.2zm-6.2-6.3l-2.4-2.4 8.4-8.4a13.17 13.17 0 0 1 3.3 8.3c-3.3-.6-6.7.4-9.3 2.5zm-3.6-15.1c3.2 0 6.2 1.2 8.6 3.3l-8.4 8.4-2.8-2.8c2.2-2.4 3.1-5.6 2.6-8.9zm-1.4.1c.5 2.8-.3 5.7-2.1 7.9l-4.8-4.8a12.49 12.49 0 0 1 6.9-3.1zm-8 4l4.9 4.9c-2.2 2-5.3 3-8.3 2.5.3-2.8 1.5-5.3 3.4-7.4zm-3.5 8.8c.6.1 1.1.1 1.7.1 2.8 0 5.6-1.1 7.7-3l2.7 2.7-8.8 8.8c-2.1-2.3-3.3-5.3-3.3-8.6zm4.3 9.7l8.8-8.8 2.3 2.3c-2.4 2.6-3.5 6.3-2.8 9.8-2.9-.1-5.9-1.2-8.3-3.3z"/><path id="T" d="M63.2 141.5c-1.6 1.6-2 3.5-1.1 4.4.3.3.8.5 1.3.5.9 0 2.1-.5 3.1-1.6 1.6-1.6 2-3.5 1.1-4.4-1-1-2.9-.5-4.4 1.1zm2.3 2.3c-1.1 1.1-2.2 1.3-2.4 1.1s0-1.3 1.1-2.4c.8-.8 1.7-1.1 2.1-1.1.1 0 .2 0 .3.1.2.1 0 1.2-1.1 2.3z"/><path id="U" d="M52.9 136c-.3-.3-.7-.3-1 0s-.3.7 0 1l1.3 1.3c.1.1.3.2.5.2s.4-.1.5-.2c.3-.3.3-.7 0-1l-1.3-1.3z"/></defs></svg>