<svg xmlns="http://www.w3.org/2000/svg" width="102" height="102" viewBox="0 0 102 102">
    <g fill="none" fill-rule="nonzero" opacity=".5" transform="translate(1 1)">
        <path fill="#CECECE" stroke="#565655" stroke-linecap="round" stroke-linejoin="round" stroke-width="1.555" d="M94.454 80.457L69.513 64.915l-7.747 9.424 20.17 21.347c.443.558.947 1.08 1.521 1.55 4.318 3.531 10.688 2.903 14.228-1.404 3.54-4.307 2.91-10.66-1.408-14.19-.575-.47-1.187-.86-1.823-1.185zM53.31 65.806l6.155-7.507 7.843 6.431-6.154 7.507z"/>
        <path fill="#CECECE" d="M80.818 50.197c-.196 0-.393-.049-.566-.14l-2.771-1.462-2.772 1.462a1.201 1.201 0 0 1-1.418-.213 1.199 1.199 0 0 1-.214-1.414l1.466-2.765-1.465-2.765a1.197 1.197 0 0 1 .211-1.413 1.21 1.21 0 0 1 1.419-.216l2.773 1.463 2.772-1.462c.162-.085.346-.13.53-.13.424 0 .83.234 1.059.613.217.36.233.788.044 1.145l-1.466 2.765 1.467 2.764c.248.473.161 1.04-.214 1.415a1.201 1.201 0 0 1-.855.353z"/>
        <path fill="#565655" d="M74.145 41.907c.068 0 .137.016.201.05l3.135 1.652 3.136-1.652a.346.346 0 0 1 .166-.041c.289 0 .563.343.415.621l-1.657 3.128 1.658 3.127a.43.43 0 0 1-.582.58l-3.136-1.653-3.136 1.653a.428.428 0 0 1-.505-.076.429.429 0 0 1-.076-.504l1.657-3.128-1.657-3.127a.429.429 0 0 1 .381-.63zm0-1.55c-.531 0-1.029.206-1.404.58a1.966 1.966 0 0 0-.35 2.327l1.272 2.4-1.273 2.403a1.965 1.965 0 0 0 .351 2.325c.375.374.874.58 1.404.58.322 0 .644-.079.929-.23l2.408-1.268 2.409 1.27c.283.149.605.229.927.229.53 0 1.029-.207 1.404-.58a1.968 1.968 0 0 0 .352-2.326L81.3 45.664l1.273-2.403a1.92 1.92 0 0 0-.065-1.907 2.033 2.033 0 0 0-1.725-.99c-.31 0-.619.078-.894.222l-2.408 1.269-2.408-1.27a2.007 2.007 0 0 0-.928-.228z"/>
        <ellipse cx="32.678" cy="42.673" fill="#CECECE" stroke="#565655" stroke-linecap="round" stroke-linejoin="round" stroke-width="1.555" rx="32.383" ry="32.298"/>
        <ellipse cx="32.678" cy="42.673" fill="#EAEAEA" stroke="#565655" stroke-linecap="round" stroke-linejoin="round" stroke-width="1.555" rx="25.101" ry="25.035"/>
        <path fill="#EAEAEA" stroke="#565655" stroke-linecap="round" stroke-linejoin="round" stroke-width="1.555" d="M69.082 67.651l-4.71 5.73a3.225 3.225 0 0 1-4.517.446 3.205 3.205 0 0 1-.447-4.505l4.71-5.73a3.225 3.225 0 0 1 4.517-.446 3.205 3.205 0 0 1 .447 4.505z"/>
        <path fill="#CECECE" stroke="#565655" stroke-linecap="round" stroke-linejoin="round" stroke-width="1.555" d="M73.219 13.496l-3.204-6.044 3.203-6.045c.341-.643-.479-1.462-1.124-1.121l-6.061 3.195L59.974.286a.834.834 0 0 0-.978.148.827.827 0 0 0-.147.974l3.202 6.044-3.203 6.045a.832.832 0 0 0 1.124 1.121l6.061-3.194 6.062 3.194a.83.83 0 1 0 1.124-1.122z"/>
        <path fill="#CECECE" d="M15.837 92.015a1.34 1.34 0 0 1-.617-.152l-3.595-1.895-3.595 1.894a1.32 1.32 0 0 1-1.551-.233 1.31 1.31 0 0 1-.234-1.548l1.9-3.586-1.899-3.584a1.308 1.308 0 0 1 .233-1.548 1.32 1.32 0 0 1 1.55-.235l3.596 1.896 3.595-1.894c.179-.094.371-.142.573-.142.465 0 .91.26 1.162.676.236.393.255.858.048 1.247l-1.898 3.584 1.901 3.585a1.312 1.312 0 0 1-.233 1.546 1.309 1.309 0 0 1-.936.389z"/>
        <path fill="#565655" d="M7.414 81.754c.086 0 .173.02.254.063l3.957 2.086 3.958-2.085a.445.445 0 0 1 .21-.052c.365 0 .711.433.524.785l-2.091 3.947 2.093 3.948a.544.544 0 0 1-.734.733l-3.958-2.086-3.958 2.085a.547.547 0 0 1-.638-.096.54.54 0 0 1-.096-.636l2.091-3.948-2.091-3.947a.54.54 0 0 1 .096-.636.533.533 0 0 1 .383-.161zm0-1.55c-.561 0-1.088.217-1.484.613a2.078 2.078 0 0 0-.37 2.46l1.706 3.22-1.708 3.224a2.077 2.077 0 0 0 .372 2.458 2.1 2.1 0 0 0 2.464.369l3.23-1.703 3.232 1.704a2.102 2.102 0 0 0 2.464-.371c.655-.654.804-1.64.372-2.457l-1.709-3.225 1.707-3.222c.334-.63.308-1.38-.071-2.008a2.157 2.157 0 0 0-1.828-1.052c-.325 0-.65.08-.938.232l-3.23 1.703-3.23-1.704a2.115 2.115 0 0 0-.979-.241z"/>
        <ellipse cx="19.304" cy="40.565" fill="#565656" rx="2.44" ry="2.434"/>
        <path fill="#565656" d="M23.377 35.395c-1.4-1.037-2.465-1.648-3.194-1.833-.819-.208-2.077-.186-3.774.066-.62-.157-.999-.793-.84-1.412a1.167 1.167 0 0 1 1.415-.839c1.662-.258 2.915-.28 3.76-.065.704.178 1.772.789 3.207 1.833.62.157 1 .793.841 1.411a1.17 1.17 0 0 1-1.415.839zM44.306 43.584c-1.296-1.032-2.287-1.648-2.974-1.848-.772-.225-1.968-.246-3.59-.063a1.107 1.107 0 0 1-.751-1.37 1.11 1.11 0 0 1 1.373-.75c1.588-.19 2.78-.169 3.576.063.662.193 1.658.81 2.987 1.849.584.17.923.786.752 1.37-.171.581-.789.919-1.373.75z"/>
        <g fill="#565656" transform="translate(38 43.15)">
            <ellipse cx="1.965" cy="2.541" rx="1.952" ry="1.947"/>
        </g>
        <path fill="#565656" d="M31.03 56.724c-1.638-.398-2.889-.712-3.753-.94-.966-.257-2.46-.67-4.482-1.243-.733-.194-1.17-.936-.969-1.648.2-.712.965-1.136 1.698-.941 1.585.384 2.837.698 3.753.94.914.243 2.408.657 4.482 1.243.733.194 1.17.937.97 1.648-.2.712-.964 1.136-1.699.941z"/>
    </g>
</svg>
